<?xml version="1.0" encoding="UTF-8" standalone="no"?>
<!DOCTYPE svg PUBLIC "-//W3C//DTD SVG 1.1//EN" "http://www.w3.org/Graphics/SVG/1.1/DTD/svg11.dtd">
<!-- Created with Vectornator (http://vectornator.io/) -->
<svg height="100%" stroke-miterlimit="10" style="fill-rule:nonzero;clip-rule:evenodd;stroke-linecap:round;stroke-linejoin:round;" version="1.1" viewBox="0 0 749.43 777.99" width="100%" xml:space="preserve" xmlns="http://www.w3.org/2000/svg" xmlns:vectornator="http://vectornator.io" xmlns:xlink="http://www.w3.org/1999/xlink">
<defs/>
<g id="Capa_2-2" vectornator:layerName="Capa_2-2">
<g opacity="1" vectornator:layerName="Capa_2-2">
<path d="M380.38 485.25C380.38 484.11 380.43 483.15 380.52 482.37C380.61 481.59 380.72 480.97 380.84 480.53C380.8 480.18 380.75 479.83 380.69 479.46C380.69 479.04 380.74 478.32 380.84 477.33C380.94 476.34 381.09 475.03 381.3 473.42C381.48 471.87 381.64 470.68 381.77 469.84C381.9 469 382 468.48 382.06 468.3C382.02 467.95 381.98 467.58 381.92 467.17C381.86 466.76 381.78 466.31 381.66 465.83L380.99 465.34L380.84 464.98C380.88 464.41 380.92 463.83 380.95 463.26C380.98 462.69 381.05 462.1 381.15 461.51C381.19 460.78 381.29 460.14 381.44 459.59C381.59 459.04 381.75 458.57 381.91 458.16C381.97 458.06 382.04 457.92 382.11 457.74C382.18 457.56 382.28 457.36 382.4 457.16C382.58 456.43 382.76 455.7 382.95 454.96C383.13 454.23 383.33 453.52 383.53 452.83C383.83 452.14 384.27 451.58 384.84 451.15C385.41 450.72 386.1 450.45 386.91 450.32C387.48 450.02 387.96 449.79 388.37 449.64C388.78 449.49 389.1 449.41 389.35 449.41C389.64 449.41 389.86 449.52 390.02 449.74C390.18 449.96 390.26 450.28 390.26 450.69C390.26 450.85 390.18 451.42 390.02 452.38C389.86 453.34 389.6 454.69 389.25 456.39C389.19 456.96 389.09 457.63 388.95 458.42C388.81 459.2 388.62 460.13 388.37 461.21C388.07 462.41 387.76 463.73 387.47 465.16C387.18 466.59 386.91 468.17 386.66 469.9C386.56 470.64 386.45 471.36 386.33 472.06C386.21 472.77 386.09 473.49 386 474.22C385.88 475.05 385.77 475.84 385.68 476.59C385.59 477.33 385.54 478 385.54 478.59C385.54 478.82 385.56 479.03 385.59 479.23C385.62 479.43 385.64 479.62 385.64 479.81C385.68 480.03 385.68 480.33 385.62 480.7C385.57 481.06 385.51 481.5 385.45 482.01C385.37 482.5 385.3 482.94 385.24 483.34C385.18 483.74 385.15 484.04 385.15 484.24C385.15 485.28 385.17 486.11 385.23 486.76C385.28 487.4 385.34 487.82 385.4 488.03C385.54 488.58 385.69 489.17 385.82 489.8C385.82 490.15 385.36 490.66 384.45 491.34C383.54 492.02 382.87 492.36 382.47 492.36C382.23 492.36 382.01 492.28 381.82 492.1C381.63 491.92 381.43 491.67 381.23 491.32C381.09 490.99 380.98 490.7 380.9 490.43C380.82 490.16 380.78 489.92 380.78 489.7C380.78 489.58 380.82 489.38 380.9 489.12C380.98 488.85 381.02 488.66 381.02 488.54C380.86 487.93 380.67 487.42 380.47 487.01C380.43 487.21 380.41 487.17 380.41 486.89L380.41 485.25L380.38 485.25Z" fill="#093e81" fill-rule="nonzero" opacity="1" stroke="none" vectornator:layerName="path"/>
<path d="M399.41 490.02C399.41 490.31 399.33 490.58 399.18 490.84C399.03 491.11 398.8 491.36 398.5 491.61C398.4 491.91 398.27 492.14 398.12 492.29C397.97 492.44 397.77 492.52 397.53 492.52C396.7 492.52 395.98 492.22 395.4 491.63C394.81 491.04 394.35 490.17 394 489L394.21 488.79L393.91 488C394.01 487.67 394.1 487.36 394.18 487.05C394.26 486.75 394.34 486.44 394.42 486.13C394.52 485.74 394.69 485.46 394.92 485.29C395.16 485.12 395.42 485.03 395.72 485.03C396.25 485.03 396.74 485.17 397.2 485.45C397.66 485.74 398.07 486.17 398.44 486.76C398.79 487.29 399.03 487.82 399.19 488.36C399.35 488.9 399.42 489.45 399.42 489.99L399.42 490.01L399.41 490.02Z" fill="#093e81" fill-rule="nonzero" opacity="1" stroke="none" vectornator:layerName="path"/>
<path d="M429.91 482.94L431.07 485.75C430.84 485.95 430.58 486.17 430.26 486.4C429.94 486.64 429.57 486.89 429.14 487.14C428.72 487.28 428.2 487.49 427.6 487.75C427 488.02 426.31 488.32 425.54 488.67C424.95 489.03 424.47 489.31 424.09 489.49C423.71 489.67 423.45 489.76 423.31 489.76C423.04 489.76 422.56 489.87 421.86 490.09C421.16 490.32 420.24 490.65 419.1 491.1C418.49 491.32 417.84 491.56 417.17 491.78C416.49 492.02 415.78 492.22 415.05 492.4L413.16 492.01L412 492.53C411.61 492.53 411.22 492.53 410.82 492.51C410.42 492.49 410.04 492.47 409.67 492.43C409.08 492.41 408.64 492.33 408.34 492.19C408.04 492.05 407.9 491.84 407.9 491.58L408.08 490.42L407.9 490.21C407.21 490.21 406.75 490.12 406.51 489.94C406.27 489.76 406.16 489.33 406.16 488.66C406.16 488.36 406.18 487.85 406.21 487.13C406.24 486.41 406.29 485.49 406.35 484.35C406.35 484.25 406.42 484.03 406.55 483.71C406.68 483.38 406.75 483.15 406.75 483.01C406.65 482.81 406.59 482.65 406.57 482.52C406.55 482.39 406.54 482.28 406.54 482.19C406.58 481.4 406.67 480.42 406.8 479.26C406.93 478.1 407.1 476.73 407.3 475.14C407.54 474.18 407.75 473.11 407.91 471.91C407.87 471.01 407.83 470.1 407.79 469.16C408.54 465.78 409.32 462.38 410.11 458.97C410.23 458.36 410.46 457.78 410.79 457.23C411.12 456.68 411.53 456.15 412 455.64C412.2 455.5 412.33 455.39 412.39 455.31C412.49 455.13 412.63 454.9 412.78 454.62C412.94 454.35 413.14 454.04 413.36 453.69C413.48 453.61 413.68 453.49 413.95 453.33C414.22 453.17 414.59 452.94 415.07 452.66C415.27 452.5 415.51 452.3 415.77 452.08C416.04 451.86 416.34 451.59 416.69 451.29C417.46 450.82 418.18 450.33 418.84 449.81C419.5 449.29 420.33 448.97 421.33 448.85C421.8 448.83 422.26 448.8 422.73 448.77C423.2 448.74 423.65 448.7 424.07 448.66C424.48 448.58 424.83 448.53 425.14 448.51C425.34 448.47 425.52 448.43 425.67 448.39C425.82 448.35 425.96 448.33 426.08 448.33C426.2 448.33 426.37 448.35 426.58 448.38C426.79 448.41 427.08 448.46 427.45 448.52C427.74 448.54 427.98 448.55 428.18 448.55C428.38 448.55 428.57 448.55 428.76 448.52C429.57 448.76 430.17 449.12 430.56 449.59C430.95 450.06 431.14 450.61 431.14 451.27C431.14 452.67 431 453.71 430.73 454.4C430.46 455.09 430.02 455.42 429.43 455.42C428.98 455.42 428.47 455.19 427.9 454.74C427.33 454.28 425.8 454.06 423.29 454.06C422.25 454.26 421.23 454.47 420.21 454.67C420.11 454.83 419.99 454.96 419.86 455.03C419.73 455.11 419.61 455.17 419.51 455.21L418.44 454.82C418.11 454.94 417.75 455.28 417.34 455.83C416.93 456.38 416.51 457.14 416.06 458.09C415.96 458.29 415.89 458.55 415.83 458.85C415.77 459.15 415.75 459.51 415.75 459.92C415.39 461.38 415.02 462.8 414.65 464.16C414.3 465.62 414.03 466.73 413.81 467.48C413.6 468.23 413.47 468.69 413.43 468.85C413.37 469.05 413.32 469.24 413.28 469.43C413.24 469.62 413.22 469.79 413.22 469.98C413.22 470.25 413.27 470.45 413.37 470.59C413.47 470.73 413.62 470.8 413.83 470.8C414.01 470.8 414.45 470.47 415.16 469.79C415.87 469.11 416.38 468.74 416.73 468.66C417.15 468.54 417.59 468.41 418.03 468.27C418.47 468.13 418.92 467.95 419.39 467.75C419.57 467.69 420.06 467.61 420.84 467.51C421.62 467.41 422.71 467.29 424.12 467.15L424.97 467.39L426.59 467.09L427.45 467.48C427.65 467.68 427.84 467.94 428.01 468.23C428.18 468.52 428.34 468.84 428.48 469.19C428.48 470.41 428.35 471.34 428.09 471.97C427.82 472.6 427.43 472.92 426.9 472.92L425.22 472.25C423.84 472.39 422.47 472.53 421.11 472.66C419.76 472.79 418.38 472.92 416.97 473.04C415.26 473.39 413.95 473.94 413.03 474.72C412.11 475.5 411.6 476.51 411.5 477.77C411.48 478.04 411.41 478.44 411.29 478.99C411.17 479.54 411.02 480.22 410.87 481.03L411.08 481.95C410.9 482.82 410.75 483.65 410.66 484.42C410.57 485.19 410.51 485.88 410.51 486.49C410.51 486.69 410.54 486.84 410.6 486.93C410.66 487.02 410.73 487.05 410.81 487.01C411.79 486.93 412.57 486.87 413.16 486.83C413.75 486.79 414.17 486.78 414.41 486.8C414.94 486.84 415.48 486.88 416.03 486.92L417.95 486.77C418.15 486.73 418.59 486.57 419.28 486.28C419.96 485.99 420.58 485.86 421.12 485.86C421.71 485.86 422.3 485.8 422.9 485.68C423.5 485.56 424.08 485.39 424.62 485.19C425.17 484.99 425.71 484.78 426.25 484.57C426.79 484.36 427.34 484.15 427.88 483.95C428.08 483.89 428.35 483.78 428.69 483.62C429.03 483.46 429.42 483.24 429.87 482.98L429.91 482.95L429.91 482.94Z" fill="#093e81" fill-rule="nonzero" opacity="1" stroke="none" vectornator:layerName="path"/>
<path d="M439.71 490.02C439.71 490.31 439.63 490.58 439.48 490.84C439.33 491.11 439.1 491.36 438.8 491.61C438.7 491.91 438.57 492.14 438.42 492.29C438.27 492.44 438.07 492.52 437.83 492.52C437 492.52 436.28 492.22 435.7 491.63C435.11 491.04 434.65 490.17 434.3 489L434.51 488.79L434.21 488C434.31 487.67 434.4 487.36 434.48 487.05C434.56 486.75 434.64 486.44 434.72 486.13C434.82 485.74 434.99 485.46 435.22 485.29C435.46 485.12 435.72 485.03 436.02 485.03C436.55 485.03 437.04 485.17 437.5 485.45C437.96 485.74 438.37 486.17 438.74 486.76C439.09 487.29 439.33 487.82 439.49 488.36C439.65 488.9 439.72 489.45 439.72 489.99L439.72 490.01L439.71 490.02Z" fill="#093e81" fill-rule="nonzero" opacity="1" stroke="none" vectornator:layerName="path"/>
<path d="M465.18 482.91L466.4 485.72C466.11 485.94 465.49 486.14 464.53 486.3C463.57 486.46 462.31 486.6 460.76 486.72C458.97 488.47 457.19 489.91 455.4 491.08C453.62 492.24 451.86 493.09 450.11 493.64C449.7 493.76 449.24 493.89 448.71 494.03C448.38 494.03 448.03 493.96 447.64 493.83C447.25 493.7 446.83 493.51 446.36 493.27C445.87 492.97 445.49 492.67 445.23 492.38C444.97 492.09 444.84 491.8 444.84 491.49C444.84 490.88 445.14 490.29 445.73 489.72C446.32 489.15 447.19 488.61 448.33 488.1C450.61 487.05 452.85 485.98 455.07 484.9C455.4 484.9 455.63 484.97 455.77 485.1C455.91 485.23 455.98 485.4 455.98 485.6C455.98 486.15 455.59 486.61 454.8 486.99C454.02 487.37 453.62 487.63 453.62 487.8C453.76 488 453.89 488.1 453.98 488.1C454.25 488.1 454.83 487.71 455.73 486.91C456.63 486.12 457.08 485.62 457.06 485.42L456.91 484.72L456.97 484.6C457.5 484.13 457.89 483.71 458.15 483.35C458.4 482.99 458.53 482.69 458.53 482.46C458.53 481.95 458.28 481.27 457.77 480.42C457.26 479.57 456.5 478.54 455.48 477.34C454.71 476.41 453.93 475.56 453.17 474.82C452.4 474.08 451.65 473.42 450.94 472.85C450.65 472.61 450.41 472.36 450.21 472.14C450.01 471.9 449.85 471.68 449.72 471.49C449.49 471.08 449.32 470.75 449.19 470.48C449.06 470.21 448.94 470.04 448.84 469.96C448.74 469.84 448.6 469.69 448.43 469.52C448.26 469.35 448.05 469.15 447.81 468.93C447.39 468.48 447.05 467.86 446.82 467.07C446.58 466.27 446.47 465.29 446.47 464.11C446.47 463.34 446.58 462.59 446.79 461.86C447 461.14 447.31 460.49 447.72 459.93C447.78 459.81 447.84 459.66 447.9 459.51C447.96 459.36 448.03 459.16 448.11 458.96C448.58 458 449.37 456.97 450.49 455.86C451.61 454.75 453.07 453.58 454.88 452.34C455.12 452.22 455.42 452.05 455.77 451.85C456.12 451.65 456.5 451.38 456.93 451.06C457.17 450.86 457.45 450.67 457.74 450.51C458.03 450.35 458.38 450.19 458.79 450.05C459.34 449.83 459.96 449.58 460.65 449.32C461.67 448.79 462.51 448.4 463.18 448.16C463.85 447.92 464.36 447.8 464.71 447.8C465.38 447.8 465.89 448 466.22 448.41C466.55 448.82 466.72 449.4 466.72 450.18C466.72 451.03 466.65 451.73 466.52 452.27C466.39 452.81 466.21 453.17 465.99 453.36C463.59 455.27 461.66 456.71 460.19 457.68C458.72 458.65 457.7 459.13 457.11 459.13C456.82 459.13 456.6 459.05 456.44 458.89C456.28 458.73 456.2 458.48 456.2 458.16C456.2 457.61 456.66 457.01 457.57 456.35C458.48 455.69 458.93 455.19 458.91 454.84L458.64 454.66C458.54 454.66 458.42 454.69 458.29 454.75C458.16 454.81 458.02 454.89 457.88 454.99C456.09 456.43 454.75 457.73 453.84 458.88C452.94 460.03 452.48 461.03 452.48 461.88C452.48 462.55 452.59 463.23 452.83 463.92C453.07 464.61 453.41 465.32 453.85 466.05C454.18 466.56 454.65 467.2 455.27 467.98C455.89 468.76 456.68 469.7 457.64 470.8C458.96 472.33 459.98 473.5 460.69 474.34C461.4 475.18 461.8 475.61 461.88 475.65C462.29 476.18 462.63 476.7 462.92 477.24C463.21 477.78 463.4 478.28 463.5 478.77C463.6 479.16 463.67 479.64 463.71 480.2C463.75 480.77 463.77 481.46 463.77 482.27C463.77 482.75 463.84 483.02 463.98 483.09C464.12 483.16 464.36 483.2 464.68 483.2C464.8 483.2 464.9 483.18 464.97 483.12C465.04 483.07 465.11 483.01 465.2 482.92L465.18 482.9L465.18 482.91Z" fill="#093e81" fill-rule="nonzero" opacity="1" stroke="none" vectornator:layerName="path"/>
<path d="M475.12 490.02C475.12 490.31 475.04 490.58 474.89 490.84C474.74 491.11 474.51 491.36 474.21 491.61C474.11 491.91 473.98 492.14 473.83 492.29C473.68 492.44 473.48 492.52 473.24 492.52C472.41 492.52 471.69 492.22 471.11 491.63C470.52 491.04 470.06 490.17 469.71 489L469.92 488.79L469.62 488C469.72 487.67 469.81 487.36 469.89 487.05C469.97 486.75 470.05 486.44 470.13 486.13C470.23 485.74 470.4 485.46 470.63 485.29C470.87 485.12 471.13 485.03 471.43 485.03C471.96 485.03 472.45 485.17 472.91 485.45C473.37 485.74 473.78 486.17 474.15 486.76C474.5 487.29 474.74 487.82 474.9 488.36C475.06 488.9 475.13 489.45 475.13 489.99L475.13 490.01L475.12 490.02Z" fill="#093e81" fill-rule="nonzero" opacity="1" stroke="none" vectornator:layerName="path"/>
<path d="M402.89 539.34L404.05 542.15C403.82 542.35 403.56 542.57 403.24 542.8C402.92 543.04 402.55 543.29 402.12 543.54C401.7 543.68 401.18 543.89 400.58 544.15C399.98 544.42 399.29 544.72 398.52 545.07C397.93 545.43 397.45 545.71 397.07 545.89C396.69 546.07 396.43 546.16 396.29 546.16C396.02 546.16 395.54 546.27 394.84 546.49C394.14 546.72 393.22 547.05 392.08 547.5C391.47 547.72 390.82 547.96 390.15 548.18C389.47 548.42 388.76 548.62 388.03 548.8L386.14 548.41L384.98 548.93C384.59 548.93 384.2 548.93 383.8 548.91C383.4 548.89 383.02 548.87 382.65 548.83C382.06 548.81 381.62 548.73 381.32 548.59C381.02 548.45 380.88 548.24 380.88 547.98L381.06 546.82L380.88 546.61C380.19 546.61 379.73 546.52 379.49 546.34C379.25 546.16 379.14 545.73 379.14 545.06C379.14 544.76 379.16 544.25 379.19 543.53C379.22 542.81 379.27 541.89 379.33 540.75C379.33 540.65 379.4 540.43 379.53 540.11C379.66 539.78 379.73 539.55 379.73 539.41C379.63 539.21 379.57 539.05 379.55 538.92C379.53 538.79 379.52 538.68 379.52 538.59C379.56 537.8 379.65 536.82 379.78 535.66C379.91 534.5 380.08 533.13 380.28 531.54C380.52 530.58 380.73 529.51 380.89 528.31C380.85 527.41 380.81 526.5 380.77 525.56C381.52 522.18 382.3 518.78 383.09 515.37C383.21 514.76 383.44 514.18 383.77 513.63C384.1 513.08 384.51 512.55 384.98 512.04C385.18 511.9 385.31 511.79 385.37 511.71C385.47 511.53 385.61 511.3 385.76 511.02C385.92 510.75 386.12 510.44 386.34 510.09C386.46 510.01 386.66 509.89 386.93 509.73C387.2 509.57 387.57 509.34 388.05 509.06C388.25 508.9 388.49 508.7 388.75 508.48C389.02 508.26 389.32 507.99 389.67 507.69C390.44 507.22 391.16 506.73 391.82 506.21C392.48 505.69 393.31 505.37 394.31 505.25C394.78 505.23 395.24 505.2 395.71 505.17C396.18 505.14 396.63 505.1 397.05 505.06C397.46 504.98 397.81 504.93 398.12 504.91C398.32 504.87 398.5 504.83 398.65 504.79C398.8 504.75 398.94 504.73 399.06 504.73C399.18 504.73 399.35 504.75 399.56 504.78C399.77 504.81 400.06 504.86 400.43 504.92C400.72 504.94 400.96 504.95 401.16 504.95C401.36 504.95 401.55 504.95 401.74 504.92C402.55 505.16 403.15 505.52 403.54 505.99C403.93 506.46 404.12 507.01 404.12 507.67C404.12 509.07 403.98 510.11 403.71 510.8C403.44 511.48 403 511.82 402.41 511.82C401.96 511.82 401.45 511.59 400.88 511.14C400.31 510.68 398.78 510.46 396.27 510.46C395.23 510.66 394.21 510.87 393.19 511.07C393.09 511.23 392.97 511.36 392.84 511.43C392.71 511.51 392.59 511.57 392.49 511.61L391.42 511.22C391.09 511.34 390.73 511.68 390.32 512.23C389.91 512.78 389.49 513.54 389.04 514.49C388.94 514.69 388.87 514.95 388.81 515.25C388.76 515.55 388.73 515.91 388.73 516.32C388.37 517.78 388 519.2 387.63 520.56C387.28 522.02 387.01 523.13 386.79 523.88C386.58 524.63 386.45 525.09 386.41 525.25C386.35 525.45 386.3 525.64 386.26 525.83C386.22 526.02 386.2 526.19 386.2 526.38C386.2 526.65 386.25 526.85 386.35 526.99C386.45 527.13 386.6 527.2 386.81 527.2C386.99 527.2 387.43 526.87 388.14 526.19C388.85 525.51 389.36 525.14 389.71 525.06C390.13 524.94 390.57 524.81 391.01 524.67C391.45 524.53 391.9 524.35 392.37 524.15C392.55 524.09 393.04 524.01 393.82 523.91C394.6 523.81 395.69 523.69 397.1 523.55L397.95 523.79L399.57 523.49L400.43 523.88C400.63 524.08 400.82 524.34 400.99 524.63C401.16 524.92 401.32 525.24 401.46 525.59C401.46 526.81 401.33 527.74 401.07 528.37C400.8 529 400.41 529.32 399.88 529.32L398.2 528.65C396.82 528.79 395.45 528.93 394.09 529.06C392.74 529.19 391.36 529.32 389.95 529.44C388.24 529.79 386.93 530.34 386.01 531.12C385.09 531.9 384.58 532.91 384.48 534.17C384.46 534.44 384.39 534.84 384.27 535.39C384.15 535.94 384 536.62 383.85 537.43L384.06 538.35C383.88 539.22 383.73 540.05 383.64 540.82C383.55 541.59 383.49 542.28 383.49 542.89C383.49 543.09 383.52 543.24 383.58 543.33C383.64 543.42 383.71 543.45 383.79 543.41C384.77 543.33 385.55 543.27 386.14 543.23C386.73 543.19 387.15 543.18 387.39 543.2C387.92 543.24 388.46 543.28 389.01 543.32L390.93 543.17C391.13 543.13 391.57 542.97 392.26 542.68C392.94 542.39 393.56 542.26 394.1 542.26C394.69 542.26 395.28 542.2 395.88 542.08C396.48 541.96 397.06 541.79 397.6 541.59C398.15 541.39 398.69 541.18 399.23 540.97C399.77 540.76 400.32 540.55 400.86 540.35C401.06 540.29 401.33 540.18 401.67 540.02C402.01 539.86 402.4 539.64 402.85 539.38L402.89 539.35L402.89 539.34Z" fill="#093e81" fill-rule="nonzero" opacity="1" stroke="none" vectornator:layerName="path"/>
<path d="M402.7 539.34C402.88 539.14 403.06 538.88 403.25 538.6C403.44 538.32 403.67 537.99 403.98 537.64L405.99 535.87C406.07 535.81 406.12 535.73 406.13 535.63C406.14 535.53 406.15 535.39 406.15 535.21C406.13 534.94 406.1 534.73 406.06 534.57C406.06 534.1 406.15 533.32 406.33 532.22C406.51 531.12 406.68 530.46 406.82 530.24L406.64 529.66C406.91 528.3 407.28 526.81 407.76 525.19C408.24 523.57 408.78 521.82 409.39 519.93C409.59 519.6 409.81 519.19 410.03 518.69C410.25 518.19 410.51 517.63 410.79 517C411.14 515.95 411.59 514.84 412.16 513.68C412.73 512.52 413.37 511.33 414.08 510.11C415.04 508.5 415.89 507.29 416.63 506.48C417.37 505.67 418.04 505.26 418.63 505.26C419.81 505.26 420.62 505.49 421.06 505.94C421.5 506.4 421.71 507.26 421.71 508.52C421.71 508.85 421.66 509.35 421.54 510.03C421.43 510.71 421.37 511.22 421.37 511.57C421.37 511.92 421.26 512.4 421.04 513.03C420.81 513.66 420.71 514.24 420.71 514.77C420.69 514.93 420.64 515.1 420.56 515.26L420.59 515.68C420.51 515.97 420.39 516.31 420.23 516.72C420.07 517.13 419.85 517.62 419.59 518.18C419.45 518.69 419.26 519.28 419.04 519.95C418.81 520.62 418.55 521.35 418.24 522.14C418.12 522.34 417.96 522.6 417.77 522.88C417.58 523.18 417.37 523.5 417.15 523.87C417.09 524.14 416.99 524.44 416.85 524.79C416.71 525.14 416.52 525.54 416.27 526.01C416.15 526.25 415.98 526.52 415.78 526.8C415.58 527.09 415.33 527.45 415.05 527.9C414.93 528.1 414.79 528.36 414.66 528.67C414.52 528.97 414.36 529.32 414.17 529.71C413.94 530.06 413.65 530.48 413.28 530.99C412.92 531.5 412.5 532.1 412.03 532.79C411.4 533.91 410.75 534.98 410.08 535.99C410.08 537.96 410.47 539.45 411.26 540.46C412.04 541.47 413.22 541.97 414.78 541.97C414.88 541.97 415.19 541.9 415.7 541.76C416.21 541.62 416.91 541.4 417.8 541.09C418.07 540.93 418.38 540.7 418.75 540.4C419.11 540.1 419.53 539.76 420 539.35L421.19 542.16C420.66 542.63 420.14 543.11 419.6 543.59C419.06 544.07 418.53 544.55 417.98 545.02C417.35 545.55 416.71 545.95 416.06 546.23C415.41 546.5 414.77 546.64 414.14 546.64C413.81 546.64 413.31 546.6 412.65 546.53C411.98 546.46 411.47 546.42 411.12 546.42C409.98 546.42 409.04 545.96 408.3 545.05C407.56 544.14 407.03 542.77 406.73 540.93C406.69 540.75 406.63 540.58 406.56 540.44C406.49 540.3 406.36 540.14 406.18 539.95C405.91 540.22 405.6 540.53 405.25 540.9C404.9 541.27 404.46 541.68 403.95 542.15L402.73 539.34L402.71 539.32L402.7 539.34ZM417.25 515.39L417.04 515.27C415.9 516.37 415.04 517.4 414.46 518.38C413.88 519.36 413.59 520.3 413.59 521.22C413.59 521.36 413.52 521.6 413.39 521.93C413.26 522.26 413.06 522.7 412.8 523.23C412.47 523.86 412.14 524.55 411.79 525.3C411.4 526.44 411.11 527.36 410.9 528.08C410.7 528.79 410.6 529.3 410.6 529.61L410.78 529.85C410.96 529.83 411.19 529.65 411.45 529.3C411.72 528.95 412.02 528.44 412.37 527.77C412.53 527.41 412.76 526.97 413.07 526.49C413.37 526 413.72 525.42 414.11 524.75C414.44 524.3 414.95 523.16 415.67 521.31C416.39 519.46 416.77 518.28 416.83 517.77C416.85 517.36 416.91 516.96 417 516.56C417.09 516.16 417.17 515.77 417.26 515.38L417.26 515.38L417.25 515.39Z" fill="#093e81" fill-rule="nonzero" opacity="1" stroke="none" vectornator:layerName="path"/>
<path d="M447.22 531.31C447.22 531.72 447.51 532.26 448.09 532.94C448.67 533.62 449.54 534.46 450.7 535.46C451.45 536.09 452.23 536.7 453.04 537.3C453.85 537.9 454.64 538.51 455.44 539.11C455.79 539.4 456.23 539.77 456.78 540.23C457.33 540.69 457.97 541.22 458.7 541.83C459.23 542.24 459.79 542.64 460.36 543.05C460.93 543.46 461.57 543.86 462.23 544.27C462.68 544.62 463.18 544.99 463.72 545.4C464.26 545.81 464.9 546.24 465.61 546.71C466.02 546.95 466.33 547.4 466.56 548.04C466.78 548.68 466.92 549.51 466.95 550.53L466.68 551.33L466.38 551.48C466.18 551.48 465.91 551.4 465.57 551.22C465.24 551.05 464.81 550.8 464.3 550.47C464.2 550.41 463.74 550.18 462.91 549.8C462.08 549.41 460.9 548.87 459.36 548.15C458.5 547.79 457.72 547.37 457.01 546.91C456.3 546.45 455.64 545.97 455.06 545.46C454.71 545.16 454.27 544.82 453.73 544.45C453.19 544.09 452.55 543.68 451.83 543.26C451.08 542.84 450.43 542.43 449.88 542.04C449.33 541.65 448.89 541.33 448.57 541.06C447.47 540.16 446.57 539.48 445.88 539.02C445.19 538.55 444.71 538.31 444.45 538.31C444.25 538.6 444.13 538.89 444.12 539.2C443.88 540.16 443.62 541.36 443.34 542.82C443.07 544.28 442.76 545.97 442.44 547.9C442.44 548.25 442.38 548.51 442.26 548.68C442.14 548.85 441.96 548.94 441.71 548.94C440.91 548.94 440.31 548.75 439.91 548.36C439.51 547.97 439.3 547.4 439.3 546.62C439.3 545.58 439.37 544.5 439.5 543.35C439.63 542.21 439.85 541.01 440.15 539.75C440.25 539.2 440.32 538.71 440.38 538.27C440.44 537.83 440.46 537.43 440.46 537.06C440.46 536.13 440.06 535.32 439.25 534.65C438.45 533.98 438.04 533.5 438.04 533.22C438.04 532.77 438.11 532.39 438.24 532.04C438.37 531.71 438.57 531.43 438.83 531.23C439.5 530.81 440.12 530.4 440.69 530.01C440.83 529.93 440.93 529.79 440.98 529.6C441.03 529.41 441.06 529.14 441.06 528.79L441.06 527.48C441.12 525.67 441.17 523.79 441.21 521.84L441.21 521.17C441.21 520.87 441.19 520.47 441.15 519.98C441.11 519.62 441.1 519.27 441.12 518.96C441.14 518.65 441.15 518.35 441.15 518.09C441.03 517.68 440.92 517.33 440.83 517.04C440.74 516.75 440.69 516.46 440.69 516.21C440.69 515.97 440.71 515.59 440.75 515.06C440.79 514.54 440.81 514.17 440.81 513.94C440.81 513.66 440.79 513.26 440.73 512.75C440.68 512.24 440.65 511.85 440.65 511.59C440.65 510.86 440.82 510.16 441.15 509.49C441.48 508.82 442 508.16 442.69 507.51C443.36 506.94 444.05 506.51 444.75 506.21C445.45 505.91 446.17 505.77 446.9 505.77C447.25 505.77 447.76 505.79 448.44 505.85C449.12 505.9 449.65 505.93 450.04 505.93C450.31 505.93 451.03 506.15 452.2 506.6C452.67 506.64 453.09 506.7 453.45 506.77C453.81 506.84 454.11 506.92 454.34 507C454.85 507.24 455.24 507.43 455.53 507.56C455.82 507.69 456.02 507.76 456.14 507.79C456.49 507.91 456.78 508.01 457.04 508.09C457.29 508.17 457.5 508.27 457.66 508.39C457.93 508.51 458.24 508.66 458.59 508.81C458.94 508.96 459.35 509.16 459.8 509.36C460.53 509.72 461.22 510.15 461.86 510.64C462.5 511.13 463.1 511.66 463.67 512.23C464.32 512.96 464.81 513.68 465.13 514.38C465.45 515.08 465.62 515.78 465.62 516.47C465.62 516.67 465.6 516.96 465.57 517.34C465.54 517.72 465.49 518.14 465.4 518.61C465.34 519.2 465.04 519.84 464.48 520.51C463.93 521.19 463.14 521.94 462.1 522.75C461.18 523.46 460.33 524.06 459.54 524.53C458.75 525.01 458.01 525.35 457.35 525.55C457.08 525.73 456.88 525.91 456.74 526.07C456.54 526.27 456.11 526.56 455.46 526.92C454.81 527.28 453.93 527.74 452.8 528.29C450.77 529.28 449.32 529.94 448.47 530.26C447.62 530.58 447.19 530.91 447.19 531.28L447.21 531.3L447.22 531.31ZM444.02 516.61C444.41 516.32 444.77 516.05 445.12 515.77C445.47 515.5 445.91 515.36 446.46 515.36C446.7 515.36 447.01 515.63 447.36 516.17C447.71 516.71 447.89 517.11 447.89 517.38C447.89 517.52 447.84 517.85 447.74 518.36C447.64 518.87 447.47 519.56 447.25 520.43C446.78 522.4 446.52 523.64 446.46 524.13C446.4 524.62 446.27 525.4 446.07 526.46C445.99 526.73 445.91 527.07 445.83 527.5C445.83 527.68 445.87 527.82 445.94 527.89C446.01 527.97 446.11 528.01 446.23 528.01C450.27 525.98 452.37 524.92 452.51 524.84C452.67 524.8 452.84 524.74 453.03 524.67C453.22 524.6 453.39 524.53 453.55 524.44L454.01 523.86C455.19 523.11 456.41 522.3 457.67 521.45C458.47 520.84 459.05 520.24 459.44 519.65C459.83 519.06 460.02 518.47 460.02 517.88C460.02 517.13 459.58 516.39 458.71 515.66C457.84 514.93 456.52 514.23 454.77 513.56C453.28 512.97 451.93 512.54 450.71 512.26C449.49 511.99 448.38 511.85 447.39 511.85C446.08 511.85 445.11 512.08 444.45 512.53C443.79 512.98 443.46 513.66 443.46 514.56C443.46 515.25 443.51 515.77 443.61 516.13C443.71 516.49 443.85 516.65 444.03 516.6L444.05 516.6L444.02 516.61Z" fill="#093e81" fill-rule="nonzero" opacity="1" stroke="none" vectornator:layerName="path"/>
<path d="M464.39 539.34L464.57 539.13L464.66 538.83C465.21 538.08 466.18 537.1 467.56 535.89C468.94 534.68 469.9 533.7 470.43 532.95C470.63 532.62 470.87 532.39 471.13 532.25C471.4 532.11 471.66 532.04 471.92 532.04C472.63 532.04 473.23 532.22 473.72 532.57C474.21 532.93 474.53 533.46 474.7 534.17C474.84 534.8 474.97 535.44 475.09 536.07C475.21 536.71 475.31 537.36 475.39 538C475.53 538.41 475.71 539.02 475.91 539.84C476.11 540.67 476.27 541.14 476.37 541.26C476.47 541.46 476.62 541.61 476.83 541.7C477.03 541.79 477.29 541.84 477.59 541.84C477.95 541.84 478.33 541.77 478.72 541.64C479.11 541.51 479.5 541.28 479.91 540.96C480.21 540.69 480.53 540.43 480.87 540.15C481.2 539.88 481.54 539.6 481.86 539.34L483.08 542.15C482.75 542.48 482.32 542.85 481.78 543.27C481.24 543.69 480.6 544.17 479.85 544.72C479.02 545.33 478.3 545.78 477.72 546.08C477.14 546.38 476.68 546.52 476.38 546.52C474.53 546.52 473.33 546.31 472.78 545.88C472.23 545.45 471.62 544.26 470.95 542.31C470.87 542.15 470.75 541.95 470.59 541.73C470.43 541.51 470.24 541.24 470.04 540.94C469.8 540.47 469.58 540.12 469.4 539.89C469.22 539.65 469.07 539.54 468.94 539.54C468.61 539.54 468.18 539.76 467.63 540.19C467.08 540.63 466.41 541.28 465.62 542.16C465.52 541.89 465.39 541.58 465.24 541.21C465.09 540.84 464.93 540.42 464.77 539.93C464.73 539.81 464.68 539.69 464.62 539.6C464.56 539.51 464.49 539.42 464.41 539.36L464.39 539.36L464.39 539.34ZM477.14 515.27C477.65 515.27 478.02 515.37 478.26 515.57C478.5 515.77 478.61 516.07 478.61 516.46C478.49 517.03 478.39 517.51 478.31 517.89C478.11 518.62 477.93 519.23 477.78 519.69C477.63 520.16 477.51 520.49 477.43 520.7C477.25 521.15 477 521.54 476.69 521.88C476.37 522.21 475.99 522.52 475.54 522.78C475.07 523.11 474.68 523.33 474.36 523.47C474.04 523.6 473.83 523.66 473.71 523.64C473.36 523.6 473.03 523.56 472.72 523.53C472.4 523.5 472.1 523.48 471.79 523.48C471.52 523.34 471.32 523.06 471.17 522.66C471.02 522.25 470.94 521.7 470.94 521.01C470.94 520.4 471.31 519.63 472.06 518.7C472.81 517.77 473.46 517.28 474.03 517.22C474.38 516.8 474.78 516.3 475.25 515.76C475.45 515.62 475.72 515.5 476.05 515.41C476.38 515.32 476.75 515.27 477.18 515.27L477.16 515.25L477.14 515.27Z" fill="#093e81" fill-rule="nonzero" opacity="1" stroke="none" vectornator:layerName="path"/>
<path d="M481.84 539.34C481.92 539.2 482.03 539.04 482.16 538.87C482.29 538.7 482.45 538.49 482.63 538.25C482.83 538.09 483.1 537.86 483.43 537.55C483.76 537.25 484.12 536.89 484.53 536.48C484.89 536.07 485.34 535.57 485.87 534.97C486.4 534.37 487.04 533.64 487.79 532.78C488.12 532.43 488.52 531.99 489.01 531.45C489.5 530.91 490.08 530.27 490.75 529.52C491.32 528.85 491.93 528.35 492.58 528.03C493.23 527.71 493.92 527.54 494.65 527.54C495.38 527.54 495.92 527.77 496.27 528.23C496.62 528.69 496.79 529.35 496.79 530.23C496.79 530.7 496.62 531.6 496.27 532.92C495.92 534.24 495.38 535.99 494.65 538.17C494.47 538.58 494.29 538.96 494.13 539.33C494.01 539.6 493.93 539.83 493.89 540.03C493.85 540.23 493.83 540.39 493.83 540.49C493.83 540.61 493.9 540.76 494.04 540.95C494.14 540.89 494.24 540.81 494.33 540.71C494.42 540.61 494.53 540.49 494.65 540.35C494.81 540.05 495.06 539.73 495.4 539.39C495.74 539.05 496.14 538.68 496.61 538.27C496.79 537.92 497.03 537.59 497.32 537.25C497.61 536.91 497.94 536.61 498.31 536.32C498.39 536.24 498.5 536.11 498.63 535.93C498.76 535.75 498.92 535.55 499.1 535.35C499.37 535.08 499.68 534.81 500.05 534.53C500.42 534.25 500.84 533.95 501.33 533.64C501.88 533.35 502.37 533.13 502.81 532.97C503.25 532.81 503.63 532.73 503.96 532.73C504.59 532.73 505.15 532.88 505.64 533.19C506.13 533.49 506.54 533.97 506.89 534.62C507.3 535.88 507.69 537.05 508.05 538.13C508.27 538.76 508.52 539.23 508.79 539.53C509.06 539.83 509.37 539.99 509.72 539.99C509.99 539.99 510.22 539.94 510.43 539.84C510.64 539.74 510.84 539.59 511.02 539.38L512.24 542.19C511.89 542.48 511.54 542.77 511.17 543.08C510.81 543.38 510.45 543.68 510.1 543.97C509.63 544.39 509.2 544.7 508.79 544.87C508.38 545.04 507.98 545.13 507.57 545.13C507.1 545.13 506.65 545.03 506.23 544.83C505.81 544.63 505.44 544.32 505.13 543.91C504.97 543.75 504.77 543.45 504.52 543.01C504.27 542.57 503.99 542.03 503.67 541.38C503.4 541.11 503.11 540.77 502.77 540.33C502.44 539.89 502.04 539.38 501.59 538.79L501.32 538.7C500.93 538.82 500.55 539 500.17 539.25C499.8 539.49 499.4 539.81 498.97 540.2C498.05 541.01 497.39 541.52 496.99 541.73C496.58 541.93 496.31 542.17 496.17 542.43C495.88 542.92 495.4 543.55 494.71 544.32C494.02 545.09 493.15 546 492.12 547.07C491.85 547.34 491.59 547.59 491.33 547.85C491.07 548.11 490.8 548.35 490.54 548.6C490.27 548.82 489.98 548.98 489.64 549.07C489.3 549.16 488.93 549.21 488.52 549.21C487.71 549.21 487.26 548.93 487.19 548.37C487.12 547.81 487.05 547.25 486.99 546.68C487.29 545.82 487.64 544.76 488.03 543.48C488.42 542.2 488.86 540.7 489.37 539C489.37 538.9 489.41 538.76 489.48 538.59C489.55 538.42 489.64 538.19 489.74 537.91C489.84 537.64 489.91 537.42 489.95 537.22C489.99 537.03 490.01 536.86 490.01 536.72C490.01 536.58 489.96 536.47 489.86 536.39C489.76 536.31 489.59 536.27 489.37 536.27C489.17 536.27 488.9 536.39 488.56 536.63C488.23 536.87 487.82 537.26 487.35 537.79C486.78 538.4 486.33 538.88 485.98 539.22C485.63 539.56 485.4 539.77 485.28 539.83C485.08 539.97 484.84 540.18 484.56 540.44C484.29 540.71 483.98 541 483.63 541.33C483.59 541.41 483.53 541.53 483.45 541.69C483.37 541.85 483.24 542.04 483.06 542.24C482.98 541.94 482.84 541.56 482.64 541.11C482.44 540.66 482.17 540.1 481.85 539.43L481.83 539.43L481.84 539.34Z" fill="#093e81" fill-rule="nonzero" opacity="1" stroke="none" vectornator:layerName="path"/>
<path d="M511 539.34L511.27 539.1C511.29 538.88 511.43 538.61 511.69 538.3C511.96 538 512.33 537.64 512.82 537.23C513.12 537.01 513.44 536.79 513.78 536.59C514.11 536.39 514.43 536.17 514.74 535.92C516.02 534.82 517.26 533.76 518.46 532.75C519.15 532.14 519.84 531.62 520.53 531.18C521.22 530.74 521.87 530.39 522.48 530.13C522.9 529.58 523.7 529.02 524.88 528.45C526.05 527.88 527 527.6 527.73 527.6C528.02 527.6 528.25 527.68 528.41 527.84C528.58 528 528.69 528.2 528.73 528.45L528.73 530.13C528.73 530.72 528.56 531.25 528.23 531.7C527.9 532.16 527.39 532.58 526.72 532.97C526.27 533.17 525.82 533.39 525.38 533.64C524.94 533.89 524.48 534.11 524.04 534.31C523.88 534.51 523.45 534.89 522.74 535.46C522.04 536.02 521.09 536.77 519.89 537.71C519.34 538.13 518.88 538.52 518.52 538.86C518.16 539.2 517.9 539.47 517.76 539.67C517.56 540.06 517.4 540.48 517.29 540.95C517.18 541.42 517.12 541.96 517.12 542.57C517.12 543.04 517.19 543.44 517.33 543.78C517.47 544.12 517.69 544.39 517.97 544.59C518.17 544.73 518.46 544.88 518.81 545.01C519.16 545.14 519.61 545.3 520.14 545.43C520.44 545.31 520.85 545.19 521.35 545.08C521.85 544.97 522.4 544.82 523.01 544.64C523.7 544.23 524.41 543.81 525.13 543.36C525.85 542.91 526.57 542.46 527.28 541.99C527.38 541.93 527.51 541.86 527.66 541.79C527.81 541.72 527.97 541.62 528.13 541.47C528.33 541.2 528.62 540.9 528.97 540.55C529.32 540.2 529.76 539.81 530.27 539.36C531.08 541.13 531.49 542.07 531.49 542.17C530.74 542.78 529.97 543.41 529.21 544.04C528.44 544.68 527.56 545.21 526.55 545.61C526.22 545.88 525.95 546.12 525.73 546.34C524.71 547.36 523.53 548.12 522.18 548.65C520.83 549.17 519.29 549.42 517.56 549.42C517.17 549.42 516.83 549.39 516.52 549.33C516.22 549.27 515.96 549.19 515.76 549.09C515.15 548.68 514.63 548.32 514.2 548.02C513.75 547.69 513.37 547.38 513.07 547.09C512.77 546.79 512.54 546.51 512.4 546.25C512.22 545.96 512.09 545.62 512.02 545.21C511.95 544.8 511.91 544.31 511.91 543.72C511.91 543.56 511.96 543.3 512.06 542.93C512.16 542.56 512.21 542.31 512.21 542.17C512.07 541.72 511.89 541.27 511.69 540.8C511.49 540.33 511.25 539.85 510.99 539.37L510.97 539.37L511 539.34Z" fill="#093e81" fill-rule="nonzero" opacity="1" stroke="none" vectornator:layerName="path"/>
<path d="M530.25 539.34C530.39 539.2 530.54 539.01 530.69 538.78C530.84 538.54 531.02 538.29 531.22 538L533.57 536.38C533.86 536.03 534.29 535.59 534.88 535.05C535.47 534.51 536.2 533.86 537.07 533.08C537.17 532.86 537.34 532.59 537.57 532.3C537.81 532 538.09 531.72 538.41 531.43C538.7 531.16 538.98 530.91 539.27 530.68C539.56 530.45 539.82 530.22 540.06 530C540.36 529.7 540.65 529.39 540.93 529.08C541.2 528.78 541.48 528.48 541.77 528.19C542.1 527.9 542.43 527.68 542.78 527.52C543.13 527.36 543.5 527.28 543.91 527.28C544.36 527.28 544.7 527.33 544.93 527.45C545.17 527.56 545.29 527.72 545.31 527.92C545.11 528.39 544.89 528.85 544.67 529.32L544.85 529.59C545.75 529.24 546.44 528.99 546.95 528.83C547.46 528.67 547.78 528.59 547.93 528.59C549.42 528.59 550.53 529.05 551.27 529.95C552.01 530.85 552.39 532.23 552.39 534.06C552.39 534.41 552.35 534.81 552.27 535.28C552.19 535.75 552.06 536.26 551.88 536.81C551.68 537.42 551.46 537.93 551.23 538.34C550.99 538.75 550.77 539.04 550.57 539.23C550.65 539.5 550.74 539.69 550.84 539.79C550.94 539.9 551.08 539.96 551.23 539.96C551.38 539.96 551.56 539.91 551.73 539.81C551.9 539.71 552.11 539.56 552.35 539.35C552.55 539.8 552.75 540.26 552.94 540.74C553.13 541.22 553.33 541.69 553.53 542.16C553.17 542.49 552.81 542.8 552.46 543.11C552.11 543.41 551.75 543.71 551.36 544C550.89 544.39 550.45 544.67 550.03 544.84C549.61 545.01 549.2 545.1 548.79 545.1C548.32 545.1 547.93 544.99 547.63 544.77C547.33 544.55 547.08 544.23 546.9 543.82C546.39 544.49 545.78 545.11 545.06 545.66C544.34 546.22 543.54 546.68 542.66 547.05C542.15 547.29 541.69 547.48 541.27 547.61C540.85 547.74 540.47 547.81 540.12 547.81C540.02 547.81 539.82 547.85 539.53 547.93C539.23 548.01 539 548.05 538.81 548.05C537.65 548.05 536.6 547.56 535.67 546.59C534.74 545.61 534.27 544.53 534.27 543.33C534.27 542.84 534.38 542.2 534.6 541.4C534.82 540.6 534.93 540.13 534.93 539.98C534.93 539.83 534.88 539.72 534.79 539.63C534.7 539.54 534.57 539.49 534.41 539.49C534.31 539.49 534.06 539.64 533.68 539.95C533.29 540.25 532.75 540.69 532.03 541.26C531.97 541.34 531.9 541.46 531.82 541.62C531.74 541.78 531.61 541.97 531.43 542.17C531.27 541.7 531.08 541.23 530.88 540.75C530.68 540.27 530.46 539.81 530.21 539.36L530.21 539.36L530.25 539.34ZM544.93 533.76C544.83 533.78 544.68 533.89 544.49 534.08C544.29 534.27 544.11 534.51 543.93 534.79C543.64 535.26 543.32 535.77 542.95 536.32C542.72 536.56 542.49 536.75 542.23 536.88C541.98 537.01 541.68 537.11 541.36 537.17C541.16 537.19 540.94 537.39 540.72 537.76C540.5 538.13 540.27 538.68 540.05 539.39C539.82 540.02 539.66 540.56 539.56 541.01C539.46 541.46 539.41 541.84 539.41 542.14C539.41 542.71 539.55 543.13 539.83 543.42C540.12 543.71 540.55 543.84 541.14 543.84C542.07 543.84 542.94 543.58 543.72 543.06C544.5 542.54 545.24 541.76 545.94 540.72C546.27 540.33 546.57 539.97 546.86 539.62C547.02 539.5 547.16 539.3 547.25 539.03C547.35 538.76 547.45 538.42 547.55 538.01L548.1 536.27C547.92 535.66 547.74 535.18 547.58 534.82C547.42 534.46 547.25 534.24 547.09 534.17C546.99 534.11 546.76 534.04 546.42 533.97C546.07 533.9 545.58 533.83 544.93 533.74L544.91 533.76L544.93 533.76ZM554.02 516.8C554.02 517.04 553.98 517.29 553.91 517.52C553.84 517.75 553.74 517.98 553.62 518.17C553.5 518.39 553.32 518.63 553.09 518.85C552.86 519.07 552.59 519.29 552.28 519.47C552.1 519.59 551.9 519.71 551.7 519.82C551.5 519.93 551.28 520.02 551.06 520.11C550.92 520.17 550.75 520.31 550.56 520.53C550.37 520.75 550.21 520.89 550.09 520.95C549.85 521.09 549.62 521.18 549.4 521.21C549.19 521.24 548.96 521.34 548.72 521.5C548.48 521.66 548.26 521.83 548.1 522C547.94 522.17 547.72 522.34 547.48 522.5C547.38 522.58 547.19 522.66 546.92 522.73C546.65 522.8 546.46 522.87 546.36 522.93C546.18 523.05 546.03 523.23 545.92 523.45C545.81 523.67 545.69 523.81 545.57 523.87C545.33 524.01 545 524.13 544.59 524.2C544.39 524.2 544.2 524.1 544.04 523.9C543.88 523.7 543.8 523.44 543.8 523.13C543.8 522.99 543.78 522.83 543.74 522.67C543.7 522.51 543.74 522.34 543.83 522.15C543.89 522.01 544.04 521.85 544.29 521.66C544.53 521.48 544.75 521.3 544.93 521.11C545.05 520.99 545.22 520.79 545.42 520.52C545.62 520.25 545.8 520.05 545.94 519.93C546.23 519.69 546.48 519.46 546.7 519.25C546.92 519.04 547.14 518.84 547.34 518.66C547.7 518.33 548.02 518.08 548.3 517.91C548.57 517.74 548.77 517.59 548.89 517.47C549.07 517.29 549.25 517.1 549.42 516.91C549.59 516.72 549.74 516.53 549.86 516.35C550.06 516.05 550.19 515.74 550.24 515.42C550.29 515.1 550.37 514.84 550.47 514.61C550.65 514.25 550.89 513.97 551.17 513.78C551.46 513.6 551.76 513.51 552.09 513.51C552.29 513.51 552.48 513.56 552.64 513.68C552.8 513.79 552.96 513.94 553.1 514.12C553.2 514.26 553.3 514.42 553.4 514.58C553.5 514.74 553.58 514.9 553.64 515.04C553.76 515.34 553.86 515.65 553.93 515.96C554 516.27 554.04 516.54 554.04 516.78L554.04 516.8L554.02 516.8Z" fill="#093e81" fill-rule="nonzero" opacity="1" stroke="none" vectornator:layerName="path"/>
<path d="M552.31 539.34C552.39 539.2 552.5 539.04 552.63 538.87C552.76 538.7 552.92 538.49 553.1 538.25C553.3 538.09 553.57 537.86 553.9 537.55C554.23 537.25 554.59 536.89 555 536.48C555.36 536.07 555.81 535.57 556.34 534.97C556.87 534.37 557.51 533.64 558.26 532.78C558.59 532.43 558.99 531.99 559.48 531.45C559.97 530.91 560.55 530.27 561.22 529.52C561.79 528.85 562.4 528.35 563.05 528.03C563.7 527.71 564.39 527.54 565.12 527.54C565.85 527.54 566.39 527.77 566.74 528.23C567.09 528.69 567.26 529.35 567.26 530.23C567.26 530.7 567.09 531.6 566.74 532.92C566.39 534.24 565.85 535.99 565.12 538.17C564.94 538.58 564.76 538.96 564.6 539.33C564.48 539.6 564.4 539.83 564.36 540.03C564.32 540.23 564.3 540.39 564.3 540.49C564.3 540.61 564.37 540.76 564.51 540.95C564.61 540.89 564.71 540.81 564.8 540.71C564.89 540.61 565 540.49 565.12 540.35C565.28 540.05 565.53 539.73 565.87 539.39C566.21 539.05 566.61 538.68 567.08 538.27C567.26 537.92 567.5 537.59 567.79 537.25C568.08 536.91 568.41 536.61 568.78 536.32C568.86 536.24 568.97 536.11 569.1 535.93C569.23 535.75 569.39 535.55 569.57 535.35C569.84 535.08 570.15 534.81 570.52 534.53C570.89 534.25 571.31 533.95 571.8 533.64C572.35 533.35 572.84 533.13 573.28 532.97C573.72 532.81 574.1 532.73 574.43 532.73C575.06 532.73 575.62 532.88 576.11 533.19C576.6 533.49 577.01 533.97 577.36 534.62C577.77 535.88 578.16 537.05 578.52 538.13C578.74 538.76 578.99 539.23 579.26 539.53C579.53 539.83 579.84 539.99 580.19 539.99C580.46 539.99 580.69 539.94 580.9 539.84C581.11 539.74 581.31 539.59 581.49 539.38L582.71 542.19C582.36 542.48 582.01 542.77 581.64 543.08C581.28 543.38 580.92 543.68 580.57 543.97C580.1 544.39 579.67 544.7 579.26 544.87C578.85 545.04 578.45 545.13 578.04 545.13C577.57 545.13 577.12 545.03 576.7 544.83C576.28 544.63 575.91 544.32 575.6 543.91C575.44 543.75 575.24 543.45 574.99 543.01C574.74 542.57 574.46 542.03 574.14 541.38C573.87 541.11 573.58 540.77 573.24 540.33C572.91 539.89 572.51 539.38 572.06 538.79L571.79 538.7C571.4 538.82 571.02 539 570.64 539.25C570.27 539.49 569.87 539.81 569.44 540.2C568.52 541.01 567.86 541.52 567.46 541.73C567.05 541.93 566.78 542.17 566.64 542.43C566.35 542.92 565.87 543.55 565.18 544.32C564.49 545.09 563.62 546 562.59 547.07C562.32 547.34 562.06 547.59 561.8 547.85C561.54 548.11 561.27 548.35 561.01 548.6C560.74 548.82 560.45 548.98 560.11 549.07C559.77 549.16 559.4 549.21 558.99 549.21C558.18 549.21 557.73 548.93 557.66 548.37C557.59 547.81 557.52 547.25 557.46 546.68C557.76 545.82 558.11 544.76 558.5 543.48C558.89 542.2 559.33 540.7 559.84 539C559.84 538.9 559.88 538.76 559.95 538.59C560.02 538.42 560.11 538.19 560.21 537.91C560.31 537.64 560.38 537.42 560.42 537.22C560.46 537.03 560.48 536.86 560.48 536.72C560.48 536.58 560.43 536.47 560.33 536.39C560.23 536.31 560.06 536.27 559.84 536.27C559.64 536.27 559.37 536.39 559.03 536.63C558.7 536.87 558.29 537.26 557.82 537.79C557.25 538.4 556.8 538.88 556.45 539.22C556.1 539.56 555.87 539.77 555.75 539.83C555.55 539.97 555.31 540.18 555.03 540.44C554.76 540.71 554.45 541 554.1 541.33C554.06 541.41 554 541.53 553.92 541.69C553.84 541.85 553.71 542.04 553.53 542.24C553.45 541.94 553.31 541.56 553.11 541.11C552.91 540.66 552.64 540.1 552.32 539.43L552.3 539.43L552.31 539.34Z" fill="#093e81" fill-rule="nonzero" opacity="1" stroke="none" vectornator:layerName="path"/>
</g>
<path d="M570.44 221.88C567.94 222.49 560.12 224.16 552.99 225.6C516.95 232.88 476.35 244.49 450.17 254.97C436.97 260.28 416.25 270.53 407.9 275.76C399.33 281.3 387.56 290.94 383.24 296.02C381.49 298.14 378.31 303.15 376.18 307.17C374.06 311.19 371.85 314.45 371.1 314.61C370.42 314.76 368.06 313.47 365.79 311.8C352.97 302.09 326.48 291.92 305.24 288.58C284.98 285.39 259.64 284.25 246.81 285.85L242.64 286.38L247.19 287.37C256.9 289.49 273.22 293.74 280.2 295.94C288.55 298.6 304.18 305.27 311.31 309.22C337.19 323.56 351.53 342 351.53 361.05C351.53 369.02 351.38 369.09 337.49 369.7C323.6 370.31 313.66 371.9 302.59 375.32C295.76 377.44 283.32 385.49 277.4 391.56C273.23 395.96 270.49 399.76 271.48 399.76C271.63 399.76 275.2 398.24 279.22 396.42C300.09 387.16 314.35 383.82 333.55 383.82L343.19 383.82L343.19 385.72C343.19 388.68 333.55 397.94 325.89 402.34C313.67 409.47 301.84 411.9 279.98 411.9C217.45 411.9 166.54 387.77 149.31 350.06C144.23 338.83 141.72 322.89 141.72 300.74C141.72 278.59 144.6 259.23 149.69 244.74C151.74 238.9 151.74 237.38 149.77 240.57C141.57 253.62 133.91 282.38 132.17 306.66C130.12 334.58 134.22 357.27 144.61 374.5C163.35 405.91 202.05 429.89 247.58 438.39C250.31 438.92 253.2 439.53 254.03 439.68C254.86 439.91 264.73 440.36 275.96 440.74C287.11 441.12 296.52 441.65 296.75 441.88C297.05 442.18 296.14 445.52 294.85 449.32C289.99 463.13 289.23 467 288.78 479.29C288.48 486.95 288.63 492.8 289.24 496.36C290.3 502.66 293.94 514.12 296.9 520.79C303.5 535.51 318.37 553.87 334.84 567.61C342.81 574.29 363.75 588.48 375.36 595.15C384.24 600.16 403.97 610.17 404.35 609.79C404.5 609.64 401.09 607.13 396.84 604.33C381.82 594.16 368.76 583.84 358.98 574.36C334.55 550.69 322.71 526.78 322.71 500.91C322.71 472.53 337.43 444.15 367.56 414.41C377.2 404.92 397.53 389.14 405.65 385.04C409.82 382.84 411.72 382.31 415.21 382.31C420.98 382.31 429.93 384.28 446.25 389.22C451.87 390.89 456.72 392.18 457.03 392.03C457.94 391.73 433.2 373.36 428.8 371.09C425.99 369.65 423.41 369.12 416.28 368.59C406.34 367.83 404.52 367.07 402.24 362.52C398.75 355.77 402.16 339.68 410.89 321.77C421.36 300.22 441.39 280.57 471.67 262.2C495.72 247.56 531.08 233.29 566.29 224.11C577.9 221.07 580.86 219.48 570.46 221.91L570.46 221.91L570.44 221.88Z" fill="#093e81" fill-rule="nonzero" opacity="1" stroke="none" vectornator:layerName="path"/>
</g>
<g id="Centro-de-Excelencia" vectornator:layerName="Centro de Excelencia">
<path d="M55.9783 246.688C56.48 246.359 56.9444 246.323 57.3714 246.58C58.7136 247.386 59.7516 249.666 60.4853 253.421C61.7288 259.782 60.7731 265.59 57.6181 270.845C55.0676 275.092 51.4831 277.549 46.8648 278.213C42.2465 278.877 37.3241 277.641 32.0977 274.503C24.6343 270.021 19.8012 263.901 17.5985 256.142C15.3958 248.383 16.3977 241 20.6043 233.994C22.7438 230.431 25.6432 227.145 29.3025 224.139L32.5718 228.854L33.539 230.216C34.286 231.321 34.448 232.227 34.0249 232.931C33.9403 233.072 33.7829 233.265 33.5526 233.511C33.0914 232.85 32.6575 232.398 32.2507 232.154C30.8882 231.336 29.1576 231.522 27.0589 232.713C24.9602 233.905 23.1917 235.698 21.7532 238.094C18.8038 243.006 18.3698 248.176 20.4513 253.602C22.5328 259.029 26.7155 263.629 32.9994 267.402C37.8598 270.32 42.3805 271.57 46.5617 271.149C50.7428 270.729 53.9153 268.717 56.079 265.114C57.6384 262.517 58.4066 259.451 58.3839 255.918C58.3611 252.385 57.5592 249.308 55.9783 246.688Z" fill="#093e81" fill-rule="nonzero" opacity="1" stroke="none" vectornator:layerName="path"/>
<path d="M72.9337 214.998C73.6117 214.739 74.1732 214.768 74.6182 215.083C75.218 215.509 75.7965 216.866 76.3539 219.155C77.7969 225.239 77.3524 229.925 75.0204 233.213C73.5961 235.221 71.6395 236.319 69.1507 236.506C66.6619 236.694 64.1986 235.924 61.7608 234.194C57.3495 231.066 54.0894 226.201 51.9805 219.6C49.8716 213 49.9971 208.036 52.3571 204.709C54.0607 202.307 56.1798 202.005 58.7143 203.803C61.5584 205.82 63.3399 209.192 64.0587 213.919C64.7775 218.646 64.2377 223.404 62.4391 228.195C67.3812 231.109 71.0392 230.892 73.4131 227.545C75.7591 224.238 75.5993 220.055 72.9337 214.998ZM58.9823 225.565C59.5807 225.132 60.0475 224.679 60.3827 224.206C62.1142 221.765 62.8941 219.107 62.7223 216.234C62.5506 213.36 61.4779 211.223 59.5045 209.823C57.2408 208.217 55.2781 208.586 53.6163 210.929C52.4154 212.622 52.3213 214.856 53.3339 217.631C54.3466 220.406 56.2294 223.051 58.9823 225.565Z" fill="#093e81" fill-rule="nonzero" opacity="1" stroke="none" vectornator:layerName="path"/>
<path d="M43.1308 545.083C42.9463 545.785 42.5962 546.225 42.0804 546.403C41.3853 546.643 39.9449 546.322 37.7595 545.442C31.9739 543.071 28.424 539.981 27.1099 536.17C26.3072 533.843 26.5545 531.613 27.8515 529.48C29.1485 527.348 31.2098 525.795 34.0353 524.82C39.1481 523.057 45.0013 523.241 51.5948 525.371C58.1883 527.501 62.15 530.495 63.4798 534.351C64.4398 537.135 63.451 539.033 60.5134 540.046C57.217 541.183 53.4384 540.667 49.1776 538.498C44.9169 536.329 41.3633 533.119 38.5168 528.866C33.2699 531.186 31.3153 534.286 32.653 538.165C33.9749 541.998 37.4676 544.304 43.1308 545.083ZM42.6677 527.588C42.6717 528.327 42.7681 528.97 42.9569 529.518C43.9327 532.347 45.6386 534.529 48.0746 536.064C50.5107 537.598 52.8724 537.971 55.1597 537.182C57.7834 536.277 58.627 534.467 57.6906 531.752C57.0139 529.789 55.2528 528.412 52.4074 527.618C49.562 526.825 46.3155 526.815 42.6677 527.588Z" fill="#093e81" fill-rule="nonzero" opacity="1" stroke="none" vectornator:layerName="Curva 1"/>
<path d="M96.2692 199.936L94.537 205.487L93.8342 204.773L91.9784 202.883L90.2329 201.082L78.6388 189.179L77.3159 187.818C76.2686 186.775 75.396 185.969 74.6979 185.399C73.5223 184.438 72.6901 184.257 72.2014 184.855C71.0561 186.257 71.3882 189.037 73.1978 193.196C72.4975 193.341 72.0188 193.308 71.7616 193.098C70.6594 192.198 69.9938 189.947 69.7647 186.347C69.5357 182.747 69.9022 180.359 70.8642 179.181C72.1775 177.573 73.8445 177.595 75.8651 179.246C76.3795 179.666 77.0301 180.276 77.8172 181.074L79.8658 183.122L81.5562 184.877L83.3293 186.7C81.8983 181.853 81.2039 177.257 81.2461 172.913C81.2884 168.568 82.0654 165.47 83.5772 163.62C85.0585 161.807 87.0391 161.913 89.519 163.939C90.2721 164.555 91.3178 165.58 92.6562 167.017L101.697 176.927C103.51 178.907 105.014 180.385 106.208 181.36C107.163 182.141 107.854 182.269 108.282 181.746C109.335 180.456 108.943 177.487 107.106 172.837C107.748 172.614 108.216 172.622 108.51 172.862C109.704 173.838 110.418 176.159 110.654 179.827C110.889 183.494 110.472 185.982 109.403 187.291C108.212 188.749 106.588 188.637 104.53 186.956C103.024 185.726 101.1 183.826 98.7566 181.257L92.8902 174.828C90.9822 172.74 89.3945 171.178 88.127 170.142C86.6758 168.957 85.5303 168.878 84.6904 169.906C82.7357 172.298 82.3479 176.026 83.5268 181.087C84.7058 186.149 86.9551 190.379 90.2747 193.777L96.2692 199.936Z" fill="#093e81" fill-rule="nonzero" opacity="1" stroke="none" vectornator:layerName="path"/>
<path d="M716.05 514.932L716.367 520.738L715.459 520.314L713.06 519.192L710.795 518.116L695.771 511.017L694.056 510.204C692.71 509.594 691.611 509.143 690.757 508.853C689.32 508.364 688.477 508.485 688.228 509.216C687.645 510.93 688.929 513.419 692.078 516.683C691.472 517.063 691.012 517.2 690.698 517.093C689.351 516.635 687.94 514.759 686.467 511.466C684.994 508.174 684.502 505.807 684.992 504.368C685.66 502.403 687.23 501.84 689.7 502.68C690.329 502.894 691.151 503.238 692.168 503.711L694.803 504.913L697.001 505.967L699.299 507.054C696.264 503.014 694.006 498.951 692.527 494.865C691.048 490.78 690.693 487.606 691.462 485.344C692.216 483.128 694.109 482.535 697.141 483.566C698.062 483.879 699.4 484.475 701.156 485.352L713.091 491.477C715.482 492.698 717.407 493.557 718.867 494.054C720.035 494.451 720.727 494.329 720.945 493.69C721.481 492.113 720.076 489.468 716.729 485.754C717.252 485.32 717.693 485.165 718.053 485.287C719.512 485.783 720.994 487.708 722.496 491.062C723.999 494.416 724.478 496.893 723.934 498.492C723.328 500.275 721.767 500.738 719.252 499.883C717.41 499.256 714.943 498.149 711.85 496.562L704.106 492.589C701.588 491.3 699.555 490.391 698.005 489.864C696.231 489.261 695.13 489.587 694.703 490.844C693.708 493.769 694.648 497.397 697.522 501.727C700.396 506.057 703.982 509.234 708.28 511.256L716.05 514.932Z" fill="#093e81" fill-rule="nonzero" opacity="1" stroke="none" vectornator:layerName="Curva 4"/>
<path d="M467.721 727.769L463.015 731.185L462.878 730.192L462.52 727.567L462.196 725.081L460.013 708.608L459.766 706.726C459.549 705.264 459.332 704.096 459.113 703.222C458.744 701.749 458.185 701.107 457.436 701.294C455.68 701.734 454.285 704.162 453.25 708.577C452.602 708.275 452.238 707.963 452.157 707.641C451.812 706.26 452.623 704.058 454.59 701.035C456.558 698.011 458.279 696.315 459.754 695.946C461.768 695.442 463.092 696.455 463.725 698.986C463.887 699.63 464.044 700.508 464.198 701.619L464.617 704.485L464.923 706.902L465.256 709.423C467.005 704.682 469.194 700.582 471.825 697.124C474.455 693.665 476.929 691.646 479.247 691.066C481.518 690.497 483.042 691.766 483.82 694.873C484.056 695.816 484.282 697.264 484.497 699.215L485.823 712.564C486.093 715.235 486.416 717.318 486.79 718.814C487.09 720.01 487.567 720.527 488.223 720.363C489.839 719.958 491.299 717.343 492.604 712.517C493.252 712.721 493.622 713.008 493.715 713.376C494.089 714.872 493.275 717.16 491.272 720.241C489.269 723.322 487.448 725.068 485.809 725.478C483.983 725.936 482.747 724.876 482.102 722.298C481.629 720.412 481.221 717.738 480.878 714.279L480.016 705.618C479.734 702.803 479.395 700.602 478.997 699.014C478.542 697.197 477.671 696.449 476.383 696.771C473.386 697.521 470.848 700.278 468.768 705.041C466.689 709.804 465.964 714.54 466.596 719.248L467.721 727.769Z" fill="#093e81" fill-rule="nonzero" opacity="1" stroke="none" vectornator:layerName="Curva 16"/>
<path d="M63.7773 588.983L58.6674 586.208L59.5045 585.657L61.7184 584.203L63.8226 582.839L77.7469 573.772L79.3387 572.738C80.5645 571.912 81.5248 571.212 82.2195 570.638C83.3896 569.671 83.7286 568.89 83.2365 568.294C82.0831 566.899 79.2912 566.686 74.8606 567.655C74.8542 566.94 74.9791 566.477 75.235 566.265C76.332 565.359 78.6685 565.142 82.2447 565.615C85.8209 566.087 88.0934 566.91 89.0623 568.082C90.3848 569.682 90.0405 571.313 88.0294 572.975C87.5175 573.399 86.7935 573.919 85.8573 574.536L83.4514 576.149L81.402 577.467L79.2704 578.854C84.3028 578.389 88.946 578.598 93.2 579.482C97.454 580.365 100.342 581.728 101.865 583.569C103.356 585.374 102.868 587.296 100.4 589.337C99.6505 589.956 98.4415 590.783 96.7731 591.818L85.2983 598.767C83.0046 600.162 81.2636 601.351 80.0752 602.333C79.1245 603.119 78.8645 603.772 79.295 604.293C80.3562 605.577 83.3453 605.768 88.2625 604.866C88.3574 605.539 88.2585 605.996 87.966 606.238C86.7776 607.221 84.3617 607.472 80.7182 606.992C77.0747 606.512 74.7147 605.621 73.6382 604.319C72.4387 602.868 72.8628 601.296 74.9104 599.603C76.4096 598.364 78.6462 596.844 81.6201 595.043L89.0641 590.534C91.4829 589.067 93.323 587.812 94.5845 586.769C96.0289 585.575 96.3281 584.467 95.4823 583.443C93.5139 581.062 89.9325 579.959 84.7382 580.135C79.5439 580.311 74.9585 581.698 70.9819 584.296L63.7773 588.983Z" fill="#093e81" fill-rule="nonzero" opacity="1" stroke="none" vectornator:layerName="Curva 3"/>
<path d="M191.187 125.193C186.471 127.886 182.36 126.164 178.855 120.026C176.031 115.082 175.156 109.265 176.227 102.576C177.299 95.8858 179.815 91.4097 183.777 89.1475C188.556 86.4184 192.698 88.123 196.203 94.2613C199.038 99.2255 199.917 105.047 198.839 111.727C197.762 118.406 195.211 122.895 191.187 125.193ZM193.015 119.56C195.425 118.184 196.69 115.713 196.808 112.149C196.927 108.585 195.863 104.836 193.616 100.901C189.946 94.4747 186.078 92.4225 182.012 94.7446C179.622 96.1091 178.371 98.5786 178.258 102.153C178.146 105.728 179.207 109.472 181.442 113.385C185.112 119.812 188.969 121.87 193.015 119.56Z" fill="#093e81" fill-rule="nonzero" opacity="1" stroke="none" vectornator:layerName="path"/>
<path d="M538.32 709.192C533.405 711.501 529.444 709.457 526.438 703.059C524.017 697.907 523.606 692.039 525.207 685.456C526.807 678.872 529.672 674.611 533.8 672.671C538.781 670.33 542.775 672.359 545.781 678.757C548.212 683.931 548.625 689.804 547.019 696.376C545.414 702.949 542.514 707.221 538.32 709.192ZM540.59 703.722C543.102 702.541 544.559 700.179 544.961 696.636C545.363 693.092 544.6 689.27 542.674 685.17C539.526 678.472 535.834 676.118 531.596 678.11C529.105 679.28 527.662 681.642 527.265 685.196C526.868 688.75 527.628 692.567 529.545 696.646C532.692 703.344 536.374 705.703 540.59 703.722Z" fill="#093e81" fill-rule="nonzero" opacity="1" stroke="none" vectornator:layerName="Curva 17"/>
<path d="M92.2857 624.398C88.4441 620.559 89.0215 616.14 94.018 611.14C98.042 607.113 103.422 604.734 110.157 604.003C116.893 603.272 121.874 604.519 125.101 607.744C128.994 611.634 128.442 616.079 123.446 621.079C119.405 625.123 114.021 627.506 107.294 628.228C100.567 628.95 95.5639 627.674 92.2857 624.398ZM98.2014 624.676C100.165 626.638 102.881 627.206 106.351 626.38C109.82 625.555 113.156 623.54 116.358 620.335C121.589 615.1 122.549 610.827 119.237 607.517C117.29 605.572 114.578 605.017 111.1 605.851C107.623 606.685 104.291 608.696 101.105 611.884C95.8741 617.119 94.9061 621.383 98.2014 624.676Z" fill="#093e81" fill-rule="nonzero" opacity="1" stroke="none" vectornator:layerName="Curva 7"/>
<path d="M135.438 662.752C131.032 659.577 130.895 655.122 135.027 649.387C138.355 644.768 143.285 641.559 149.817 639.761C156.349 637.962 161.466 638.397 165.167 641.063C169.632 644.281 169.798 648.757 165.666 654.492C162.324 659.13 157.39 662.343 150.865 664.132C144.34 665.921 139.198 665.461 135.438 662.752ZM141.322 662.079C143.574 663.702 146.346 663.829 149.639 662.459C152.931 661.089 155.902 658.566 158.551 654.891C162.877 648.886 163.141 644.515 159.342 641.778C157.109 640.169 154.343 640.055 151.044 641.434C147.744 642.813 144.777 645.331 142.142 648.988C137.816 654.992 137.542 659.356 141.322 662.079Z" fill="#093e81" fill-rule="nonzero" opacity="1" stroke="none" vectornator:layerName="Curva 9"/>
<path d="M269.502 53.7664L268.897 50.7452C267.367 43.2598 267.916 36.4433 270.543 30.2958C273.169 24.1483 277.213 20.1831 282.674 18.4003C283.982 17.9733 285.143 17.719 286.157 17.6373L282.871 24.1374C281.675 24.1286 280.343 24.364 278.874 24.8434C275.433 25.967 273.249 27.9899 272.324 30.9118C271.399 33.8338 271.547 38.2522 272.767 44.1669L278.764 73.3871L279.23 75.6305C279.65 77.6146 279.992 79.0126 280.257 79.8243C280.617 80.9292 281.096 81.3843 281.693 81.1896C283.597 80.5678 284.821 77.8227 285.364 72.9542C286.102 73.1127 286.529 73.3724 286.647 73.7332C286.912 74.545 286.502 76.4381 285.416 79.4125C283.883 83.5061 281.981 85.9236 279.71 86.6652C277.943 87.242 276.669 86.3353 275.889 83.9451C275.602 83.0657 275.169 81.2732 274.591 78.5676L273.963 75.4787L273.421 72.8858C272.965 76.7776 271.49 80.8337 268.996 85.054C266.502 89.2743 264.119 91.7553 261.847 92.4969C258.612 93.5531 256.181 91.5895 254.554 86.6061C252.426 80.0894 252.753 73.5075 255.534 66.8605C258.315 60.2134 262.517 55.9723 268.138 54.137C268.413 54.0471 268.868 53.9236 269.502 53.7664ZM270.531 58.783C268.265 58.375 266.329 58.4332 264.723 58.9575C261.327 60.0662 259.146 62.8742 258.18 67.3816C257.214 71.889 257.684 77.0628 259.591 82.9031C260.548 85.8345 261.898 87.0155 263.642 86.4462C265.753 85.757 267.731 83.4147 269.575 79.4191C271.98 74.267 272.577 68.7072 271.366 62.74L270.531 58.783Z" fill="#093e81" fill-rule="nonzero" opacity="1" stroke="none" vectornator:layerName="path"/>
<path d="M316.252 63.0633C316.932 63.318 317.334 63.7109 317.459 64.242C317.627 64.9579 317.162 66.3583 316.065 68.4433C313.12 73.959 309.686 77.1775 305.762 78.0988C303.365 78.6615 301.172 78.1896 299.182 76.6832C297.192 75.1768 295.855 72.9687 295.172 70.0591C293.936 64.794 294.712 58.9895 297.499 52.6458C300.287 46.302 303.666 42.664 307.637 41.7317C310.504 41.0587 312.292 42.2347 313.002 45.2599C313.799 48.6545 312.903 52.3613 310.314 56.3804C307.724 60.3995 304.17 63.6095 299.651 66.0105C301.428 71.4655 304.313 73.7241 308.308 72.7863C312.256 71.8595 314.904 68.6185 316.252 63.0633ZM298.8 61.7515C299.536 61.8224 300.185 61.7917 300.749 61.6593C303.663 60.9753 306.007 59.4992 307.78 57.2311C309.553 54.963 310.163 52.6512 309.61 50.2958C308.976 47.594 307.261 46.5713 304.465 47.2277C302.444 47.7022 300.895 49.3146 299.817 52.065C298.74 54.8154 298.401 58.0442 298.8 61.7515Z" fill="#093e81" fill-rule="nonzero" opacity="1" stroke="none" vectornator:layerName="path"/>
<path d="M309.558 707.233L310.538 704.312C312.941 697.059 316.812 691.422 322.153 687.401C327.493 683.379 332.975 681.956 338.598 683.131C339.945 683.412 341.078 683.77 341.998 684.205L335.911 688.203C334.878 687.6 333.605 687.14 332.093 686.824C328.549 686.084 325.648 686.75 323.391 688.822C321.133 690.895 319.06 694.8 317.171 700.536L307.813 728.86L307.099 731.037C306.474 732.966 306.074 734.348 305.9 735.184C305.662 736.322 305.85 736.955 306.465 737.083C308.426 737.493 310.855 735.723 313.751 731.772C314.312 732.277 314.553 732.715 314.475 733.087C314.301 733.923 313.002 735.36 310.579 737.398C307.21 740.183 304.356 741.332 302.017 740.843C300.198 740.463 299.546 739.043 300.06 736.581C300.249 735.676 300.767 733.906 301.613 731.272L302.608 728.281L303.43 725.763C301.096 728.91 297.796 731.692 293.531 734.108C289.265 736.525 285.963 737.489 283.624 737C280.293 736.304 279.163 733.391 280.235 728.259C281.637 721.549 285.2 716.005 290.923 711.627C296.646 707.249 302.401 705.665 308.19 706.874C308.474 706.934 308.929 707.053 309.558 707.233ZM307.95 712.095C306.189 710.612 304.481 709.698 302.827 709.352C299.33 708.622 296.04 709.97 292.957 713.397C289.874 716.824 287.704 721.544 286.448 727.558C285.817 730.576 286.399 732.273 288.195 732.648C290.369 733.103 293.25 732.057 296.84 729.511C301.493 726.242 304.78 721.719 306.702 715.942L307.95 712.095Z" fill="#093e81" fill-rule="nonzero" opacity="1" stroke="none" vectornator:layerName="Curva 11"/>
<path d="M337.873 732.262C338.371 732.79 338.559 733.319 338.437 733.851C338.273 734.568 337.239 735.621 335.336 737.009C330.263 740.665 325.762 742.042 321.833 741.141C319.434 740.591 317.672 739.201 316.549 736.972C315.425 734.743 315.198 732.172 315.866 729.259C317.075 723.988 320.327 719.118 325.624 714.65C330.92 710.182 335.556 708.404 339.532 709.316C342.402 709.974 343.49 711.817 342.795 714.846C342.016 718.245 339.579 721.178 335.484 723.646C331.389 726.114 326.785 727.431 321.67 727.597C320.863 733.277 322.459 736.575 326.459 737.493C330.411 738.399 334.216 736.655 337.873 732.262ZM322.782 723.398C323.411 723.786 324.008 724.045 324.572 724.174C327.49 724.843 330.244 724.55 332.835 723.294C335.426 722.039 336.991 720.232 337.532 717.874C338.152 715.169 337.063 713.495 334.263 712.853C332.24 712.389 330.139 713.155 327.961 715.15C325.782 717.144 324.056 719.894 322.782 723.398Z" fill="#093e81" fill-rule="nonzero" opacity="1" stroke="none" vectornator:layerName="Curva 12"/>
<path d="M380.033 43.5912L373.867 48.8061C373.394 46.8792 373.206 45.0631 373.301 43.3578C373.671 36.7264 376.778 31.5188 382.622 27.7351C386.886 24.9797 392.801 23.8133 400.368 24.2358L412.297 24.9018C416.78 25.1521 421.367 25.2538 426.06 25.207L422.725 32.3262L422.073 33.6083C421.393 34.972 420.583 35.6276 419.643 35.5752C419.498 35.5671 419.33 35.5458 419.139 35.5114C419.47 34.342 419.655 33.4021 419.695 32.6915C419.782 31.1284 418.999 30.1047 417.346 29.6204C415.693 29.1361 411.529 28.7076 404.853 28.3349L401.347 28.1391L398.471 45.2265L405.52 45.62C409.593 45.8474 413.218 45.8598 416.396 45.6571C413.468 48.7484 410.606 50.216 407.81 50.0599C406.244 49.9724 404.033 49.7302 401.179 49.3333C400.002 49.1963 399.172 49.1143 398.69 49.0874L397.823 49.039L397.289 52.1095C396.532 56.5811 395.552 59.7337 394.349 61.5672C393.147 63.4006 390.89 65.1871 387.577 66.9265L395.46 67.9724L398.662 68.4363C400.918 68.7285 403.624 68.9628 406.781 69.1391C412.107 69.4364 416.636 67.9906 420.368 64.8017C420.752 65.2745 420.933 65.7123 420.911 66.1149C420.874 66.778 419.509 68.0679 416.815 69.9844C412.887 72.7823 408.695 74.0568 404.236 73.8078C400.115 73.5778 394.206 72.9033 386.508 71.7846L373.092 69.8239C372.636 69.7746 371.014 69.5891 368.228 69.2672L375.117 64.734C377.48 65.2699 380.328 65.7853 383.661 66.2802C386.073 65.5121 387.735 64.322 388.647 62.7098C389.559 61.0977 390.432 57.7967 391.267 52.8067L395.527 27.8142L394.262 27.7435C389.586 27.4825 385.871 28.2194 383.115 29.9542C380.359 31.6891 378.888 34.2143 378.703 37.53C378.596 39.4484 379.039 41.4688 380.033 43.5912Z" fill="#093e81" fill-rule="nonzero" opacity="1" stroke="none" vectornator:layerName="path"/>
<path d="M446.818 63.1268L446.242 60.0543C445.808 57.8762 445.571 56.6989 445.53 56.5225L444.509 52.4638C443.792 49.5583 442.876 48.0029 441.76 47.7977C440.074 47.4877 438.46 48.7945 436.916 51.7183C436.251 51.3307 435.963 50.8919 436.054 50.402C436.32 48.9556 437.479 47.4564 439.531 45.9045C441.584 44.3525 443.287 43.701 444.64 43.9499C447.298 44.4389 449.361 48.7014 450.828 56.7374L451.199 58.723L452.256 57.5789C458.763 50.6237 463.749 47.4648 467.215 48.1023C468.117 48.2682 469.126 48.7192 470.243 49.4551L465.117 53.1068C464.577 52.8387 464.188 52.6828 463.951 52.6391C461.34 52.1588 457.687 54.538 452.993 59.7766L451.652 61.2663L452.071 63.5866C453.647 72.6314 455.444 77.3394 457.462 77.7106C459.314 78.0511 460.966 77.0045 462.42 74.5707C463.008 75.1128 463.261 75.6056 463.179 76.0488C462.964 77.2153 461.757 78.4404 459.558 79.7241C457.359 81.0078 455.57 81.5231 454.194 81.2698C451.44 80.7633 449.328 76.4316 447.859 68.2746L447.339 65.5017L445.978 67.0964C439.633 74.3709 434.253 77.6021 429.838 76.7899C428.176 76.4843 426.839 75.8162 425.826 74.7857L430.69 71.5562C431.273 72.3871 432.04 72.8898 432.989 73.0645C435.672 73.5579 439.176 71.4529 443.501 66.7495L445.894 64.1506L446.818 63.1268Z" fill="#093e81" fill-rule="nonzero" opacity="1" stroke="none" vectornator:layerName="path"/>
<path d="M507.725 59.5391L502.406 63.075C500.769 61.7866 499.104 60.8976 497.411 60.4081C494.374 59.5296 491.614 60.1019 489.132 62.1249C486.65 64.1479 484.773 67.3583 483.501 71.7561C482.605 74.8551 482.515 77.533 483.231 79.7898C483.948 82.0465 485.327 83.47 487.367 84.0601C490.822 85.0593 494.177 83.6222 497.433 79.7488C497.785 80.4432 497.892 81.0297 497.753 81.5082C497.206 83.3995 495.097 85.0673 491.426 86.5117C487.754 87.9562 484.666 88.3163 482.162 87.592C479.751 86.8946 478.049 85.3716 477.058 83.0229C476.066 80.6743 476.008 77.9847 476.885 74.9541C478.592 69.0523 482.184 64.2762 487.662 60.6257C493.14 56.9752 498.372 55.8708 503.357 57.3126C505.165 57.8356 506.622 58.5778 507.725 59.5391Z" fill="#093e81" fill-rule="nonzero" opacity="1" stroke="none" vectornator:layerName="path"/>
<path d="M656.453 563.676L657.501 569.977C655.655 570.943 654.162 572.098 653.023 573.442C650.978 575.854 650.37 578.606 651.199 581.698C652.028 584.791 654.189 587.818 657.68 590.779C660.141 592.866 662.547 594.044 664.899 594.315C667.252 594.585 669.115 593.91 670.489 592.29C672.815 589.547 672.878 585.898 670.677 581.341C671.455 581.304 672.033 581.447 672.413 581.769C673.915 583.043 674.573 585.65 674.387 589.591C674.202 593.532 673.266 596.497 671.58 598.485C669.956 600.399 667.87 601.328 665.321 601.271C662.772 601.214 660.295 600.165 657.889 598.125C653.204 594.151 650.317 588.918 649.23 582.425C648.142 575.933 649.277 570.708 652.633 566.75C653.851 565.314 655.124 564.29 656.453 563.676Z" fill="#093e81" fill-rule="nonzero" opacity="1" stroke="none" vectornator:layerName="Curva 6"/>
<path d="M79.3159 559.378L72.9465 558.902C72.4457 556.879 71.6778 555.155 70.6427 553.729C68.7854 551.17 66.256 549.927 63.0548 549.998C59.8535 550.07 56.4003 551.451 52.6954 554.14C50.0847 556.035 48.369 558.093 47.5484 560.314C46.7278 562.535 46.9413 564.505 48.189 566.224C50.3016 569.135 53.8322 570.062 58.7807 569.005C58.6319 569.769 58.3559 570.297 57.9528 570.59C56.3595 571.747 53.6705 571.767 49.886 570.652C46.1014 569.537 43.4435 567.924 41.9122 565.815C40.4377 563.783 40.0304 561.536 40.6905 559.074C41.3505 556.611 42.9571 554.453 45.5103 552.6C50.4822 548.991 56.2507 547.429 62.8158 547.913C69.3809 548.397 74.1876 550.738 77.2359 554.938C78.3419 556.462 79.0352 557.942 79.3159 559.378Z" fill="#093e81" fill-rule="nonzero" opacity="1" stroke="none" vectornator:layerName="Curva 2"/>
<path d="M533.331 92.5847C533.699 93.2102 533.765 93.7686 533.527 94.2599C533.208 94.9221 531.966 95.7186 529.801 96.6492C524.043 99.0848 519.348 99.4264 515.718 97.6743C513.501 96.6041 512.093 94.8575 511.493 92.4347C510.894 90.0119 511.244 87.4547 512.543 84.7631C514.894 79.8925 519.148 75.8681 525.305 72.69C531.462 69.5118 536.378 68.8093 540.051 70.5825C542.703 71.8625 543.354 73.9018 542.003 76.7002C540.487 79.8404 537.459 82.1583 532.918 83.6539C528.377 85.1495 523.595 85.4093 518.571 84.4333C516.521 89.7914 517.344 93.3623 521.039 95.146C524.691 96.9087 528.788 96.0549 533.331 92.5847ZM520.589 80.587C521.116 81.1049 521.641 81.4897 522.162 81.7415C524.858 83.0426 527.608 83.3692 530.413 82.7214C533.218 82.0737 535.147 80.6604 536.199 78.4814C537.405 75.982 536.715 74.1081 534.128 72.8595C532.259 71.9572 530.04 72.2362 527.473 73.6966C524.905 75.1571 522.61 77.4538 520.589 80.587Z" fill="#093e81" fill-rule="nonzero" opacity="1" stroke="none" vectornator:layerName="path"/>
<path d="M556.697 106.567C557.142 107.201 557.235 107.745 556.977 108.199C556.133 109.684 553.962 110.878 550.464 111.782C546.966 112.686 544.451 112.703 542.919 111.832C541.177 110.842 541.01 109.11 542.416 106.635C543.272 105.13 544.239 103.647 545.319 102.187L547.23 99.6309L561.89 79.4782C566.372 73.3495 571.776 69.1771 578.102 66.9609C584.429 64.7447 590.089 65.0559 595.083 67.8942C596.3 68.5859 597.27 69.2734 597.992 69.9567L590.973 71.9019C590.174 71.0114 589.114 70.1905 587.792 69.4392C584.644 67.6503 581.671 67.3994 578.871 68.6867C576.071 69.9739 572.9 73.049 569.359 77.912L551.7 102.171C550.332 104.04 549.402 105.408 548.91 106.274C547.855 108.13 547.653 109.243 548.303 109.613C549.08 110.054 550.341 109.959 552.088 109.329C553.834 108.698 555.371 107.777 556.697 106.567Z" fill="#093e81" fill-rule="nonzero" opacity="1" stroke="none" vectornator:layerName="path"/>
<path d="M365.151 732.647C365.854 732.973 366.208 733.396 366.213 733.918C366.23 735.626 364.953 737.749 362.383 740.289C359.813 742.829 357.647 744.107 355.885 744.124C353.882 744.144 352.867 742.73 352.839 739.884C352.822 738.153 352.913 736.384 353.113 734.58L353.48 731.409L356.026 706.619C356.821 699.068 359.396 692.744 363.752 687.649C368.107 682.554 373.157 679.978 378.901 679.922C380.301 679.908 381.485 680.016 382.453 680.243L377.362 685.452C376.224 685.084 374.895 684.907 373.374 684.922C369.754 684.957 367.057 686.235 365.283 688.755C363.51 691.275 362.314 695.527 361.697 701.511L358.621 731.359C358.378 733.662 358.261 735.312 358.271 736.308C358.292 738.443 358.676 739.507 359.425 739.5C360.318 739.491 361.361 738.775 362.554 737.352C363.747 735.929 364.612 734.361 365.151 732.647Z" fill="#093e81" fill-rule="nonzero" opacity="1" stroke="none" vectornator:layerName="Curva 13"/>
<path d="M131.608 642.926C131.92 643.635 131.906 644.187 131.564 644.582C130.447 645.873 128.085 646.621 124.477 646.825C120.87 647.029 118.4 646.555 117.067 645.402C115.552 644.091 115.726 642.359 117.588 640.207C118.721 638.897 119.959 637.632 121.303 636.41L123.676 634.276L141.986 617.371C147.578 612.235 153.693 609.197 160.33 608.258C166.967 607.319 172.458 608.729 176.802 612.487C177.861 613.403 178.678 614.266 179.253 615.077L171.989 615.616C171.38 614.586 170.5 613.574 169.35 612.579C166.612 610.211 163.744 609.384 160.747 610.101C157.75 610.817 154.04 613.214 149.618 617.293L127.564 637.64C125.858 639.206 124.679 640.366 124.027 641.119C122.631 642.734 122.215 643.786 122.781 644.276C123.456 644.86 124.712 645.013 126.548 644.735C128.384 644.457 130.071 643.854 131.608 642.926Z" fill="#093e81" fill-rule="nonzero" opacity="1" stroke="none" vectornator:layerName="Curva 8"/>
<path d="M592.964 129.478C593.198 130.165 593.148 130.725 592.816 131.158C592.369 131.742 590.991 132.269 588.682 132.74C582.549 133.955 577.883 133.335 574.685 130.882C572.731 129.383 571.707 127.387 571.613 124.893C571.518 122.399 572.381 119.966 574.2 117.594C577.492 113.303 582.475 110.228 589.15 108.367C595.824 106.507 600.78 106.818 604.017 109.301C606.353 111.093 606.576 113.222 604.684 115.688C602.562 118.454 599.125 120.108 594.375 120.65C589.625 121.191 584.89 120.473 580.17 118.497C577.073 123.326 577.153 126.99 580.408 129.488C583.626 131.956 587.811 131.953 592.964 129.478ZM582.927 115.141C583.338 115.755 583.773 116.239 584.233 116.591C586.607 118.413 589.234 119.292 592.112 119.228C594.99 119.164 597.166 118.172 598.639 116.252C600.328 114.05 600.033 112.075 597.754 110.327C596.107 109.063 593.878 108.885 591.067 109.794C588.256 110.702 585.543 112.484 582.927 115.141Z" fill="#093e81" fill-rule="nonzero" opacity="1" stroke="none" vectornator:layerName="path"/>
<path d="M603.785 156.19L598.395 154.009L599.164 153.367L601.2 151.672L603.137 150.08L615.951 139.502L617.417 138.295C618.542 137.337 619.417 136.533 620.043 135.884C621.096 134.791 621.345 133.977 620.789 133.441C619.486 132.184 616.687 132.287 612.394 133.75C612.307 133.04 612.379 132.565 612.61 132.326C613.598 131.302 615.895 130.823 619.502 130.89C623.108 130.957 625.459 131.518 626.554 132.573C628.048 134.014 627.89 135.674 626.079 137.552C625.618 138.03 624.957 138.629 624.096 139.348L621.887 141.221L620 142.762L618.038 144.38C622.986 143.351 627.623 143.036 631.949 143.434C636.276 143.833 639.299 144.861 641.02 146.52C642.705 148.145 642.437 150.11 640.214 152.415C639.539 153.115 638.431 154.073 636.89 155.289L626.271 163.487C624.149 165.132 622.553 166.509 621.483 167.619C620.627 168.507 620.442 169.185 620.929 169.654C622.127 170.81 625.119 170.663 629.903 169.213C630.074 169.871 630.027 170.337 629.763 170.61C628.693 171.72 626.321 172.242 622.647 172.176C618.972 172.109 616.527 171.49 615.311 170.317C613.955 169.011 614.199 167.401 616.043 165.488C617.393 164.088 619.444 162.326 622.197 160.201L629.085 154.882C631.323 153.152 633.01 151.698 634.146 150.519C635.447 149.17 635.619 148.035 634.664 147.114C632.439 144.969 628.757 144.277 623.615 145.037C618.474 145.797 614.074 147.692 610.415 150.721L603.785 156.19Z" fill="#093e81" fill-rule="nonzero" opacity="1" stroke="none" vectornator:layerName="path"/>
<path d="M673.492 188.644L667.108 188.427C666.526 186.427 665.688 184.736 664.596 183.353C662.636 180.872 660.058 179.733 656.862 179.935C653.666 180.137 650.272 181.657 646.68 184.495C644.149 186.495 642.518 188.621 641.789 190.874C641.06 193.127 641.353 195.087 642.67 196.753C644.9 199.575 648.465 200.357 653.366 199.1C653.249 199.869 652.995 200.409 652.604 200.717C651.059 201.938 648.373 202.068 644.546 201.108C640.719 200.148 637.998 198.645 636.382 196.6C634.826 194.63 634.327 192.401 634.886 189.914C635.445 187.427 636.963 185.205 639.438 183.25C644.259 179.441 649.959 177.645 656.538 177.861C663.118 178.076 668.016 180.22 671.233 184.292C672.4 185.77 673.153 187.22 673.492 188.644Z" fill="#093e81" fill-rule="nonzero" opacity="1" stroke="none" vectornator:layerName="path"/>
<path d="M671.843 231.533C671.84 232.287 671.684 232.753 671.376 232.931C670.636 233.357 668.652 233.289 665.425 232.725C661.056 231.984 658.268 230.568 657.063 228.476C656.183 226.95 656.74 225.612 658.733 224.463C659.576 223.978 662.346 222.799 667.044 220.927L676.134 217.317L678.442 216.405L680.282 215.679C681.062 215.369 681.698 215.072 682.191 214.787C683.219 214.195 683.564 213.606 683.226 213.021C682.286 211.39 679.506 210.652 674.887 210.807C675.007 210.208 675.242 209.808 675.591 209.607C676.845 208.884 679.208 209.089 682.681 210.222C686.154 211.354 688.294 212.621 689.101 214.022C690.005 215.591 689.389 216.991 687.251 218.223C686.84 218.46 685.95 218.862 684.579 219.429L682.351 220.337C682.174 220.411 681.276 220.775 679.655 221.431L670.097 225.226L667.943 226.05C665.834 226.903 664.451 227.52 663.793 227.899C662.91 228.408 662.618 228.924 662.92 229.447C663.932 231.203 666.907 231.899 671.843 231.533ZM692.717 211.103L696.691 208.179C698.986 209.976 698.917 206.243 701.1 210.141C700.933 210.516 697.301 213.879 696.981 214.034C693.581 215.67 699.582 214.891 692.717 211.103Z" fill="#093e81" fill-rule="nonzero" opacity="1" stroke="none" vectornator:layerName="path"/>
<path d="M686.563 559.728C687.259 559.437 687.748 559.398 688.032 559.613C688.714 560.127 689.425 561.98 690.167 565.171C691.192 569.482 690.977 572.602 689.523 574.528C688.462 575.934 687.013 575.944 685.176 574.558C684.4 573.972 682.233 571.883 678.674 568.289L671.801 561.332L670.059 559.564L668.672 558.153C668.082 557.557 667.56 557.087 667.105 556.744C666.159 556.03 665.482 555.942 665.075 556.482C663.94 557.984 664.347 560.831 666.295 565.023C665.697 565.146 665.237 565.086 664.915 564.843C663.76 563.972 663.025 561.716 662.711 558.077C662.397 554.438 662.727 551.973 663.701 550.682C664.792 549.237 666.322 549.258 668.291 550.744C668.67 551.03 669.388 551.693 670.445 552.733L672.151 554.429C672.288 554.563 672.975 555.248 674.212 556.484L681.439 563.799L683.039 565.46C684.648 567.068 685.756 568.101 686.362 568.558C687.176 569.173 687.765 569.239 688.128 568.757C689.35 567.139 688.828 564.129 686.563 559.728ZM659.602 548.495L655.357 545.978C656.115 543.163 652.706 544.686 655.441 541.153C655.852 541.161 660.367 543.19 660.634 543.425C663.468 545.915 660.407 540.695 659.602 548.495Z" fill="#093e81" fill-rule="nonzero" opacity="1" stroke="none" vectornator:layerName="Curva 5"/>
<path d="M690.476 265.161C685.289 265.091 680.65 264.376 676.557 263.016C672.464 261.657 669.798 259.942 668.556 257.872C666.856 255.036 668.254 252.27 672.75 249.574C678.934 245.866 685.528 244.72 692.53 246.136C699.533 247.551 704.729 251.085 708.117 256.736C709.408 258.889 710.242 260.88 710.619 262.708C710.191 262.824 709.93 262.896 709.836 262.924L707.995 263.521C706.728 263.944 705.996 264.2 705.8 264.289L691.121 270.389L689 271.28C686.906 272.17 685.534 272.81 684.883 273.2C684.008 273.725 683.726 274.246 684.036 274.763C685.079 276.502 688.059 277.136 692.975 276.664C692.985 277.418 692.827 277.893 692.502 278.088C691.79 278.515 689.822 278.485 686.598 277.998C682.216 277.332 679.405 275.965 678.163 273.894C677.257 272.383 677.801 271.03 679.795 269.835C680.405 269.469 681.293 269.035 682.458 268.533L685.085 267.38L688.013 266.174L690.476 265.161ZM703.652 259.667C703.56 257.161 702.936 254.946 701.782 253.02C700.044 250.122 696.847 248.733 692.189 248.852C687.531 248.972 682.628 250.574 677.481 253.66C674.837 255.246 673.992 256.836 674.948 258.43C676.053 260.272 678.77 261.668 683.101 262.618C688.934 263.904 694.586 263.414 700.058 261.146L703.652 259.667Z" fill="#093e81" fill-rule="nonzero" opacity="1" stroke="none" vectornator:layerName="path"/>
<path d="M645.406 606.774C646.732 611.789 647.29 616.45 647.08 620.757C646.87 625.065 645.935 628.094 644.274 629.846C641.999 632.246 638.96 631.643 635.155 628.036C629.922 623.075 627.046 617.032 626.528 609.907C626.01 602.781 628.018 596.827 632.551 592.045C634.278 590.223 635.972 588.885 637.631 588.03C637.858 588.412 637.998 588.644 638.05 588.726L639.12 590.339C639.867 591.447 640.31 592.083 640.449 592.247L650.268 604.748L651.697 606.551C653.116 608.329 654.102 609.479 654.653 610.001C655.393 610.703 655.971 610.835 656.386 610.397C657.78 608.925 657.59 605.885 655.815 601.276C656.539 601.064 657.038 601.088 657.314 601.349C657.916 601.921 658.416 603.824 658.813 607.061C659.349 611.46 658.787 614.536 657.126 616.287C655.914 617.566 654.465 617.406 652.778 615.807C652.261 615.317 651.605 614.579 650.809 613.591L648.992 611.37L647.043 608.874L645.406 606.774ZM636.574 595.559C634.185 596.321 632.219 597.516 630.674 599.145C628.35 601.598 627.87 605.051 629.237 609.506C630.603 613.96 633.464 618.252 637.82 622.381C640.058 624.502 641.816 624.888 643.095 623.539C644.572 621.98 645.187 618.988 644.938 614.561C644.61 608.597 642.619 603.284 638.965 598.623L636.574 595.559Z" fill="#093e81" fill-rule="nonzero" opacity="1" stroke="none" vectornator:layerName="Curva 15"/>
<path d="M395.513 723.7C393.226 728.356 390.592 732.242 387.609 735.357C384.627 738.472 381.935 740.146 379.532 740.381C376.241 740.701 374.341 738.253 373.833 733.036C373.133 725.859 374.923 719.41 379.204 713.69C383.484 707.97 388.903 704.79 395.462 704.15C397.96 703.907 400.116 704.006 401.929 704.449C401.851 704.886 401.804 705.153 401.789 705.249L401.54 707.169C401.378 708.495 401.296 709.266 401.292 709.481L400.512 725.358L400.409 727.656C400.315 729.929 400.305 731.444 400.379 732.199C400.478 733.214 400.828 733.693 401.428 733.634C403.446 733.437 405.296 731.017 406.977 726.372C407.663 726.687 408.024 727.033 408.061 727.41C408.141 728.237 407.27 730.002 405.448 732.706C402.969 736.379 400.528 738.333 398.126 738.568C396.373 738.739 395.383 737.667 395.157 735.354C395.088 734.645 395.077 733.657 395.123 732.39L395.207 729.522L395.372 726.36L395.513 723.7ZM396.196 709.441C393.892 708.45 391.623 708.064 389.389 708.282C386.026 708.61 383.4 710.903 381.512 715.163C379.623 719.423 378.97 724.539 379.552 730.512C379.852 733.581 380.926 735.025 382.776 734.845C384.914 734.636 387.34 732.779 390.054 729.273C393.716 724.555 395.696 719.238 395.992 713.322L396.196 709.441Z" fill="#093e81" fill-rule="nonzero" opacity="1" stroke="none" vectornator:layerName="Curva 14"/>
<path d="M237.045 703.656C232.855 706.713 228.715 708.927 224.626 710.296C220.537 711.666 217.375 711.896 215.139 710.985C212.077 709.738 211.534 706.687 213.512 701.832C216.232 695.153 220.817 690.278 227.268 687.207C233.718 684.135 239.994 683.842 246.097 686.328C248.422 687.275 250.284 688.366 251.683 689.602C251.41 689.952 251.245 690.166 251.187 690.245L250.073 691.827C249.312 692.926 248.881 693.57 248.778 693.759L240.7 707.45L239.539 709.436C238.398 711.404 237.685 712.74 237.399 713.443C237.014 714.388 237.101 714.974 237.66 715.202C239.537 715.966 242.301 714.684 245.95 711.356C246.411 711.953 246.569 712.427 246.426 712.779C246.113 713.548 244.521 714.705 241.65 716.251C237.746 718.349 234.677 718.943 232.441 718.032C230.809 717.367 230.432 715.959 231.309 713.806C231.577 713.147 232.027 712.267 232.657 711.166L234.066 708.667L235.683 705.944L237.045 703.656ZM244.285 691.353C242.707 689.404 240.879 688.006 238.8 687.159C235.67 685.885 232.279 686.693 228.625 689.585C224.971 692.476 222.013 696.701 219.749 702.259C218.586 705.115 218.865 706.893 220.586 707.594C222.576 708.405 225.587 707.89 229.62 706.049C235.058 703.577 239.284 699.791 242.299 694.693L244.285 691.353Z" fill="#093e81" fill-rule="nonzero" opacity="1" stroke="none" vectornator:layerName="Curva 10"/>
<path d="M114.411 143.168L124.041 155.489C125.777 157.693 127.113 159.271 128.049 160.225C129.904 162.115 131.475 162.428 132.763 161.164C134.152 159.801 134.474 157.252 133.73 153.516C134.293 153.588 134.697 153.749 134.943 154C135.863 154.936 136.139 156.866 135.772 159.787C135.405 162.709 134.627 164.753 133.44 165.919C131.065 168.25 128.383 167.893 125.395 164.849C124.295 163.728 122.656 161.774 120.478 158.986L110.823 146.689L105.529 151.885L105.607 146.094L108.292 143.459L104.337 138.375L106.819 133.526L111.88 139.937L122.518 129.496L122.439 135.287L114.411 143.168Z" fill="#093e81" fill-rule="nonzero" opacity="1" stroke="none" vectornator:layerName="Texto 3"/>
<path d="M150.876 127.672C149.719 116.577 151.236 109.63 155.425 106.83C156.517 106.101 157.777 105.625 159.207 105.402L158.094 112.658C157.236 112.724 156.32 113.082 155.345 113.733C153.319 115.088 152.277 118.159 152.221 122.946C152.164 127.734 153.126 132.031 155.107 135.838L159.084 143.498L155.735 147.85L155.236 146.915L154.171 144.878L153.135 142.822L145.357 127.893L144.517 126.256C143.885 125.015 143.328 124.034 142.846 123.313C142.052 122.124 141.323 121.751 140.661 122.194C139.102 123.236 138.666 125.937 139.353 130.298C138.619 130.253 138.131 130.03 137.89 129.627C137.154 128.399 137.189 126.1 137.995 122.728C138.8 119.357 139.817 117.261 141.044 116.441C142.701 115.334 144.258 115.871 145.717 118.054C146.068 118.58 146.495 119.324 146.996 120.285L148.159 122.468L149.537 125.099L150.876 127.672Z" fill="#093e81" fill-rule="nonzero" opacity="1" stroke="none" vectornator:layerName="Texto 4"/>
<path d="M563.679 671.964C563.13 660.822 565.023 653.968 569.36 651.401C570.489 650.732 571.774 650.326 573.214 650.182L571.706 657.366C570.846 657.385 569.911 657.693 568.903 658.29C566.805 659.531 565.598 662.541 565.28 667.318C564.963 672.096 565.689 676.439 567.458 680.349L571.011 688.214L567.429 692.377L566.983 691.416L566.03 689.324L565.108 687.214L558.157 671.883L557.407 670.202C556.844 668.929 556.341 667.919 555.899 667.173C555.171 665.942 554.464 665.53 553.778 665.936C552.165 666.891 551.582 669.565 552.031 673.957C551.3 673.872 550.825 673.622 550.606 673.207C549.938 671.941 550.099 669.646 551.087 666.324C552.075 663.002 553.205 660.964 554.475 660.212C556.19 659.197 557.715 659.819 559.053 662.078C559.375 662.623 559.76 663.389 560.209 664.376L561.251 666.619L562.483 669.322L563.679 671.964Z" fill="#093e81" fill-rule="nonzero" opacity="1" stroke="none" vectornator:layerName="Texto 11"/>
<path d="M34.8487 481.644L28.0102 477.625C29.6222 476.608 31.2739 475.86 32.9651 475.381C39.1665 473.624 44.9153 474.785 50.2116 478.863C54.1677 481.908 57.1039 486.813 59.0202 493.578L64.7402 513.772C67.1099 522.138 70.8768 525.59 76.0408 524.127C77.8449 523.616 79.3379 522.524 80.52 520.849L85.7863 523.961C84.7144 525.337 83.1185 526.325 80.9988 526.925C76.5564 528.183 72.2631 527.238 68.1188 524.088C63.9746 520.938 61.0689 516.42 59.4017 510.534L56.7381 501.131L33.1535 505.071L29.2839 505.728C25.9732 506.252 23.4654 506.213 21.7605 505.612C20.0556 505.011 18.121 503.47 15.9568 500.99L18.2375 510.977L13.164 508.029L9.23253 491.311L14.6629 494.487L15.3013 498.289C17.8106 500.525 21.8413 501.211 27.3935 500.344L30.7704 499.753L55.1956 495.685L53.5668 489.935C50.8904 480.486 46.429 476.646 40.1826 478.416C38.2883 478.952 36.5104 480.028 34.8487 481.644Z" fill="#093e81" fill-rule="nonzero" opacity="1" stroke="none" vectornator:layerName="Texto 5"/>
<path d="M702.556 552.971C699.924 557.625 695.526 558.209 689.362 554.724C684.398 551.917 680.643 547.392 678.1 541.149C675.556 534.905 675.389 529.829 677.6 525.92C680.266 521.204 684.682 520.588 690.846 524.074C695.831 526.893 699.59 531.421 702.124 537.658C704.658 543.895 704.801 548.999 702.556 552.971ZM701.204 547.251C702.549 544.873 702.351 542.133 700.609 539.033C698.868 535.933 696.022 533.266 692.071 531.032C685.617 527.382 681.256 527.564 678.987 531.577C677.654 533.935 677.863 536.667 679.614 539.773C681.366 542.879 684.207 545.544 688.137 547.766C694.591 551.415 698.946 551.244 701.204 547.251ZM672.562 525.487L668.122 518.349C668.618 514.044 668.53 510.459 667.856 507.594C668.752 507.554 669.417 507.657 669.852 507.903C671.982 509.108 672.886 514.969 672.562 525.487Z" fill="#093e81" fill-rule="nonzero" opacity="1" stroke="none" vectornator:layerName="Texto 6"/>
<path d="M192.713 665.901C191.814 664.007 190.235 662.426 187.977 661.158C185.138 659.565 181.739 660.001 177.78 662.466C173.821 664.931 170.382 668.764 167.463 673.966C165.951 676.659 165.993 678.454 167.589 679.35C169.412 680.373 172.431 680.214 176.644 678.873C182.49 677.004 187.071 673.744 190.39 669.093L192.713 665.901ZM200.191 665.03C199.879 665.345 199.688 665.538 199.621 665.609L198.355 667.065C197.411 668.115 196.893 668.697 196.803 668.81L189.175 679.488C187.897 681.279 185.801 684.503 182.887 689.162C179.236 694.988 176.177 699.103 173.71 701.506C171.244 703.91 168.3 705.636 164.877 706.685C157.026 709.119 150.313 708.771 144.739 705.642C142.045 704.13 140.319 701.963 139.56 699.139C138.801 696.315 139.19 693.535 140.725 690.8C143.853 685.226 150.35 681.637 160.215 680.034C159.404 678.08 159.807 675.663 161.423 672.783C164.936 666.525 170.051 662.242 176.768 659.936C183.485 657.629 189.652 658.052 195.268 661.204C197.651 662.541 199.292 663.817 200.191 665.03ZM184.318 677.58C173.932 682.978 166.469 684.403 161.931 681.856C161.745 681.751 161.425 681.544 160.971 681.236C153.442 683.386 148.613 686.358 146.485 690.15C145.031 692.74 144.73 695.426 145.581 698.206C146.432 700.986 148.215 703.138 150.93 704.662C155.116 707.011 159.363 706.97 163.671 704.537C166.964 702.652 171.942 696.549 178.607 686.228C181.123 682.327 183.027 679.444 184.318 677.58Z" fill="#093e81" fill-rule="nonzero" opacity="1" stroke="none" vectornator:layerName="Texto 7"/>
<path d="M207.576 697.868C207.973 698.499 208.09 698.974 207.927 699.291C207.536 700.052 205.845 701.08 202.855 702.376C198.819 704.149 195.743 704.492 193.63 703.406C192.087 702.613 191.842 701.192 192.895 699.142C193.341 698.275 195.026 695.775 197.952 691.641L203.619 683.652L205.06 681.628L206.209 680.014C206.695 679.329 207.068 678.732 207.329 678.225C207.872 677.168 207.848 676.488 207.256 676.184C205.607 675.337 202.898 676.242 199.128 678.9C198.911 678.335 198.894 677.872 199.079 677.513C199.741 676.224 201.821 675.101 205.317 674.146C208.814 673.191 211.27 673.077 212.686 673.804C214.271 674.619 214.499 676.125 213.37 678.323C213.153 678.746 212.623 679.569 211.78 680.793L210.404 682.77C210.296 682.929 209.74 683.725 208.735 685.159L202.777 693.559L201.417 695.425C200.111 697.292 199.284 698.564 198.936 699.24C198.469 700.149 198.5 700.739 199.028 701.01C200.804 701.923 203.653 700.875 207.576 697.868ZM212.885 668.737L219.84 664.015C224.162 664.339 227.74 664.107 230.576 663.32C230.651 664.213 230.575 664.882 230.347 665.326C229.228 667.503 223.408 668.64 212.885 668.737Z" fill="#093e81" fill-rule="nonzero" opacity="1" stroke="none" vectornator:layerName="Texto 8"/>
<path d="M426.545 708.873L421.825 715.385C420.956 713.659 420.357 711.896 420.029 710.096C418.93 704.065 420.293 698.817 424.118 694.352C427.942 689.887 433.571 686.978 441.006 685.624L443.776 685.119C443.699 690.665 443.724 694.38 443.85 696.265L445.079 713.758L445.332 717.734C445.54 721.126 445.257 723.653 444.485 725.315C443.713 726.978 441.982 728.778 439.292 730.718L449.557 729.391L446.09 734.226L428.871 736.565L432.568 731.399L436.467 731.123C438.991 728.804 440.074 724.802 439.715 719.119L439.481 715.647L437.711 690.608L436.624 690.806C426.898 692.577 422.621 696.678 423.792 703.107C424.158 705.117 425.076 707.039 426.545 708.873Z" fill="#093e81" fill-rule="nonzero" opacity="1" stroke="none" vectornator:layerName="Texto 9"/>
<path d="M505.302 698.275L514.217 725.85C516.249 732.094 517.336 737.053 517.478 740.726C517.62 744.399 516.867 748.088 515.219 751.791C512.802 757.233 509.09 761.049 504.082 763.24C503.081 763.679 501.678 763.968 499.872 764.11L502.472 758.226C504.589 758.026 506.399 757.597 507.901 756.939C514.323 754.129 515.905 747.639 512.649 737.47L509.954 729L500.665 700.304L494.755 702.891L496.82 697.474L499.399 696.345L498.766 694.365C496.025 685.967 495.598 678.678 497.484 672.496C499.37 666.314 503.361 661.89 509.457 659.222C510.61 658.717 511.953 658.26 513.485 657.848L510.886 664.355C508.977 664.439 507.238 664.823 505.671 665.509C501.927 667.147 499.827 669.61 499.371 672.896C498.915 676.182 499.934 681.65 502.426 689.301L504.036 694.316L517.262 688.528L515.033 694.017L505.302 698.275Z" fill="#093e81" fill-rule="nonzero" opacity="1" stroke="none" vectornator:layerName="Texto 10"/>
<path d="M614.955 654.545L612.2 659.453L611.673 658.615L610.281 656.399L608.95 654.315L600.548 640.836L599.63 639.276C599.123 638.482 598.593 637.736 598.041 637.037C596.633 635.252 595.385 634.789 594.3 635.645C592.608 636.982 592 640.268 592.477 645.506C592.954 650.743 594.252 655.064 596.371 658.467L600.882 665.656L598.1 670.585L597.573 669.747L596.181 667.531L594.877 665.425L586.176 651.51L585.187 649.917C584.416 648.675 583.754 647.704 583.202 647.005C582.272 645.828 581.513 645.472 580.925 645.937C579.545 647.026 579.289 649.766 580.158 654.157C579.459 654.141 579.008 654.005 578.804 653.747C577.933 652.643 577.753 650.344 578.264 646.85C578.775 643.356 579.619 641.144 580.797 640.215C582.379 638.966 583.969 639.353 585.566 641.376C585.973 641.891 586.471 642.618 587.062 643.555L588.606 645.964L589.866 648.015L591.192 650.148L591.006 648.324C589.884 638.43 591.098 632.082 594.649 629.279C596.359 627.928 598.188 628.485 600.134 630.95C600.468 631.373 601.099 632.324 602.026 633.801L603.755 636.557L606.091 640.312C604.999 635.411 604.7 630.862 605.194 626.664C605.687 622.467 606.854 619.643 608.694 618.19C610.515 616.752 612.355 617.211 614.214 619.565C615.013 620.577 615.863 621.862 616.764 623.42L623.384 634.812C624.741 637.174 625.877 638.935 626.792 640.093C627.562 641.068 628.214 641.345 628.747 640.924C629.373 640.43 629.745 639.285 629.865 637.489C629.984 635.692 629.806 633.907 629.331 632.132C630.089 632.071 630.577 632.178 630.795 632.454C631.71 633.613 631.911 635.977 631.4 639.547C630.888 643.116 630.025 645.38 628.811 646.338C627.247 647.573 625.638 647.141 623.982 645.044C622.937 643.72 621.52 641.509 619.731 638.412L615.447 630.999C615.295 630.731 614.945 630.156 614.398 629.274C614.174 628.914 613.795 628.302 613.263 627.438C612.73 626.575 612.297 625.931 611.963 625.508C610.728 623.945 609.596 623.57 608.566 624.383C606.837 625.748 606.192 629.064 606.632 634.33C607.072 639.597 608.352 643.932 610.472 647.335L614.955 654.545Z" fill="#093e81" fill-rule="nonzero" opacity="1" stroke="none" vectornator:layerName="Texto 12"/>
<path d="M244.236 722.791L250.101 720.338C251.313 722.758 253.263 724.368 255.95 725.17C259.229 726.149 261.34 725.055 262.285 721.89C262.808 720.137 262.035 717.24 259.967 713.201L258.622 710.605C256.665 706.773 255.962 703.934 256.512 702.09C257.301 699.448 259.107 697.57 261.932 696.453C264.758 695.337 267.844 695.279 271.191 696.277C273.013 696.821 274.904 697.757 276.863 699.085L271.633 701.654C270.29 699.84 268.559 698.617 266.441 697.985C263.959 697.244 262.409 697.91 261.791 699.982C261.349 701.462 262.078 704.048 263.977 707.739L265.423 710.625C267.587 714.842 268.37 717.952 267.772 719.956C266.916 722.825 264.782 724.947 261.371 726.323C257.96 727.698 254.456 727.849 250.858 726.776C248.308 726.015 246.1 724.687 244.236 722.791Z" fill="#093e81" opacity="1" stroke="none" vectornator:layerName="Texto 13"/>
</g>
</svg>
