<svg width="100%" viewBox="0 0 660 101" fill="none" xmlns="http://www.w3.org/2000/svg">
    <path
        d="M0 13.8871C0 6.20047 6.22328 -0.0240041 13.8844 6.95958e-05L90.9381 0.242199C98.2163 0.26507 102.38 8.55634 98.0329 14.4134C87.9281 28.0289 73.7839 46.8759 71.4044 48.9356C67.5886 52.2385 60.7676 49.7025 62.1074 44.8281L65.0028 34.294C65.8093 31.3597 63.6336 28.4526 60.6001 28.4114L13.6534 27.7729C6.08308 27.6699 0 21.4833 0 13.8871Z"
        fill="#6953F2"></path>
    <path
        d="M100 86.113C100 93.7996 93.7767 100.024 86.1156 100L9.06186 99.7579C1.7837 99.735 -2.37965 91.4437 1.96715 85.5867C12.0719 71.9712 26.2161 53.1242 28.5956 51.0645C32.4114 47.7616 39.2324 50.2976 37.8926 55.172L34.9972 65.7061C34.1907 68.6404 36.3664 71.5475 39.3999 71.5887L86.3466 72.2272C93.9169 72.3302 100 78.5168 100 86.113Z"
        fill="#6953F2"></path>
    <path
        d="M338.693 39.4668C338.964 39.1373 338.73 38.6401 338.306 38.6401H303.214C302.937 38.6401 302.712 38.4139 302.712 38.1349V25.5052C302.712 25.2262 302.937 25 303.214 25H357.821C358.098 25 358.323 25.2262 358.323 25.5052V37.5268C358.323 37.6424 358.284 37.7545 358.211 37.8444L321.182 83.8836C320.916 84.214 321.15 84.7065 321.573 84.7065H358.894C359.171 84.7065 359.396 84.9327 359.396 85.2117V97.5046C359.396 97.7836 359.171 98.0098 358.894 98.0098H301.936C301.658 98.0098 301.433 97.7833 301.434 97.5042L301.444 85.0507C301.444 84.9335 301.485 84.82 301.559 84.7297L338.693 39.4668Z"
        fill="#000000"></path>
    <path
        d="M186.235 16.1187C186.468 15.7839 186.229 15.324 185.823 15.324H141.215C140.937 15.324 140.713 15.0979 140.713 14.8189V0.505188C140.713 0.226181 140.937 0 141.215 0H206.204C206.481 0 206.706 0.226058 206.706 0.504988L206.711 14.2237C206.711 14.3278 206.679 14.4294 206.62 14.5146L159.078 82.4482C158.843 82.7829 159.081 83.2441 159.489 83.2441H206.892C207.17 83.2441 207.395 83.4703 207.395 83.7493V97.5578C207.395 97.8368 207.17 98.063 206.892 98.063H139.936C139.659 98.063 139.434 97.8366 139.434 97.5574L139.445 83.566C139.445 83.4625 139.476 83.3616 139.535 83.2768L186.235 16.1187Z"
        fill="#000000"></path>
    <path fill-rule="evenodd" clip-rule="evenodd"
        d="M637.085 75.9356C636.933 75.9356 636.788 76.0057 636.692 76.125C632.349 81.4975 625.729 85.2534 618.314 85.2534C607.551 85.2534 598.464 77.7114 595.582 67.8123C595.489 67.4944 595.73 67.1805 596.059 67.1805H656.296C656.543 67.1805 656.754 66.9992 656.79 66.7529C657.056 64.9066 657.194 63.0185 657.194 61.098C657.194 39.5048 639.786 22 618.314 22C596.841 22 579.434 39.5048 579.434 61.098C579.434 82.6912 596.841 100.196 618.314 100.196C634.298 100.196 648.03 90.4961 654.005 76.6303C654.147 76.3006 653.904 75.9356 653.547 75.9356H637.085ZM640.364 54.3512C640.7 54.3512 640.941 54.0263 640.837 53.7055C637.744 44.1698 628.829 37.2794 618.314 37.2794C607.799 37.2794 598.884 44.1698 595.791 53.7055C595.687 54.0263 595.928 54.3512 596.263 54.3512H640.364Z"
        fill="#000000"></path>
    <path fill-rule="evenodd" clip-rule="evenodd"
        d="M293.459 61.2315C293.459 61.7356 293.45 62.2374 293.431 62.7368V98.0539C293.431 98.3329 293.206 98.559 292.929 98.559H278.119C277.841 98.559 277.617 98.3329 277.617 98.0539V90.7571C277.617 90.5794 277.364 90.5155 277.272 90.6669C273.496 96.8542 260.698 100.463 254.446 100.463C254.022 100.463 253.6 100.456 253.179 100.443C232.22 99.7701 215.434 82.4721 215.434 61.2315C215.434 39.991 232.22 22.693 253.179 22.0203C253.376 22.014 253.573 22.0091 253.771 22.0058C253.996 22.0019 254.221 22 254.446 22C268.196 22 280.284 29.1524 287.232 39.959C290.919 45.6933 293.158 52.4566 293.431 59.7262C293.45 60.2256 293.459 60.7275 293.459 61.2315ZM277.617 64.9351C275.85 76.2035 266.149 84.8206 254.446 84.8206C254.021 84.8206 253.599 84.8092 253.179 84.7867C240.813 84.1247 230.989 73.8318 230.989 61.2315C230.989 48.6313 240.813 38.3384 253.179 37.6764C253.599 37.6539 254.021 37.6425 254.446 37.6425C266.149 37.6425 275.85 46.2596 277.617 57.528C277.806 58.7346 277.904 59.9715 277.904 61.2315C277.904 62.4916 277.806 63.7285 277.617 64.9351Z"
        fill="#000000"></path>
    <path
        d="M367.936 25C367.659 25 367.434 25.2262 367.434 25.5052V60.0235C367.434 67.7811 368.222 75.1436 372.168 82.0359C378.325 92.7913 389.871 100.032 403.098 100.032C416.325 100.032 427.871 92.7913 434.028 82.0359C437.974 75.1436 438.762 67.7811 438.762 60.0235V25.5052C438.762 25.2262 438.537 25 438.26 25H423.245C422.968 25 422.743 25.2262 422.743 25.5052V49.164C422.743 50.6966 422.75 51.9522 422.762 52.9964C422.879 63.1305 422.857 74.7243 414.888 80.9292C411.615 83.4777 407.665 84.7442 403.098 84.7285C398.531 84.7442 394.581 83.4777 391.308 80.9292C383.339 74.7243 383.317 63.1305 383.434 52.9964C383.446 51.9522 383.453 50.6966 383.453 49.164V25.5052C383.453 25.2262 383.228 25 382.951 25H367.936Z"
        fill="#000000"></path>
    <path
        d="M481.498 22C492.501 22 502.321 27.0963 508.75 35.0697C508.955 35.325 509.345 35.325 509.551 35.0697C515.98 27.0963 525.799 22 536.802 22C549.807 22 561.158 29.1195 567.212 39.694C570.173 44.8662 571.867 50.8649 571.867 57.2615V97.6987C571.867 97.9777 571.642 98.2039 571.364 98.2039L556.619 98.2039C556.342 98.2039 556.117 97.9777 556.117 97.6987V72.0133C556.117 70.6284 556.122 69.4735 556.133 68.4987C556.238 58.3644 556.248 46.7153 548.191 40.6266C545.013 38.2249 541.198 37.0316 536.802 37.0467C532.406 37.0316 528.591 38.2249 525.413 40.6265C517.356 46.7153 517.366 58.3644 517.471 68.4986C517.481 69.4735 517.487 70.6284 517.487 72.0133L517.487 97.6987C517.487 97.9777 517.262 98.2039 516.985 98.2039L501.315 98.2039C501.038 98.2039 500.813 97.9777 500.813 97.6987L500.813 72.0133C500.813 70.6284 500.819 69.4735 500.829 68.4987C500.934 58.3644 500.944 46.7153 492.888 40.6266C489.71 38.2249 485.895 37.0316 481.498 37.0467C477.102 37.0316 473.287 38.2249 470.109 40.6265C462.053 46.7153 462.063 58.3644 462.168 68.4986C462.178 69.4735 462.184 70.6284 462.184 72.0133L462.184 97.6987C462.184 97.9777 461.959 98.2039 461.681 98.2039H446.936C446.659 98.2039 446.434 97.9777 446.434 97.6987L446.434 57.2615C446.434 50.8649 448.127 44.8662 451.088 39.694C457.142 29.1194 468.494 22 481.498 22Z"
        fill="#000000"></path>
</svg>